<?plantuml 1.2026.1?><svg xmlns="http://www.w3.org/2000/svg" xmlns:xlink="http://www.w3.org/1999/xlink" contentStyleType="text/css" data-diagram-type="DESCRIPTION" height="760px" preserveAspectRatio="none" style="width:748px;height:760px;background:#FFFFFF;" version="1.1" viewBox="0 0 748 760" width="748px" zoomAndPan="magnify"><title>SecretariaOnline2 - sistemas externos (S1 a S5)
Pagina 2 de 3</title><defs/><g><g class="title" data-source-line="273"><text fill="#000000" font-family="sans-serif" font-size="14" font-weight="bold" lengthAdjust="spacing" textLength="316.709" x="208.7417" y="24.5332">SecretariaOnline2 - sistemas externos (S1 a S5)</text><text fill="#000000" font-family="sans-serif" font-size="14" font-weight="bold" lengthAdjust="spacing" textLength="89.4824" x="322.355" y="42.1426">Pagina 2 de 3</text></g><!--cluster Z--><g class="cluster" data-qualified-name="Z" data-source-line="284" id="ent0007"><rect fill="none" height="368" rx="2.5" ry="2.5" style="stroke:#181818;stroke-width:1;" width="262" x="7" y="299.2188"/><text fill="#000000" font-family="sans-serif" font-size="14" font-weight="bold" lengthAdjust="spacing" textLength="243.5439" x="16.228" y="315.752">Colaboracao com sistemas externos</text></g><!--entity z1--><g class="entity" data-qualified-name="Z.z1" data-source-line="285" id="ent0008"><ellipse cx="137.8702" cy="360.9928" fill="#F1F1F1" rx="114.3702" ry="25.274" style="stroke:#181818;stroke-width:0.5;"/><text fill="#000000" font-family="sans-serif" font-size="14" lengthAdjust="spacing" textLength="204.5996" x="35.5704" y="366.2975">Grupo UC-AUT-01 a UC-AUT-06</text></g><!--entity z2--><g class="entity" data-qualified-name="Z.z2" data-source-line="286" id="ent0009"><ellipse cx="137.8827" cy="446.9953" fill="#F1F1F1" rx="114.3827" ry="25.2765" style="stroke:#181818;stroke-width:0.5;"/><text fill="#000000" font-family="sans-serif" font-size="14" lengthAdjust="spacing" textLength="204.627" x="35.5692" y="452.3">Grupo UC-SOL-01 a UC-SOL-07</text></g><!--entity z3--><g class="entity" data-qualified-name="Z.z3" data-source-line="287" id="ent0010"><ellipse cx="137.8009" cy="536.0313" fill="#F1F1F1" rx="114.8009" ry="27.8125" style="stroke:#181818;stroke-width:0.5;"/><text fill="#000000" font-family="sans-serif" font-size="14" lengthAdjust="spacing" textLength="158.6895" x="58.4562" y="532.66">UC-CRT-01, UC-SOL-05,</text><text fill="#000000" font-family="sans-serif" font-size="14" lengthAdjust="spacing" textLength="156.3516" x="59.6251" y="550.2694">UC-FOR-02, UC-PRE-04</text></g><!--entity z4--><g class="entity" data-qualified-name="Z.z4" data-source-line="288" id="ent0011"><ellipse cx="138.0484" cy="625.3519" fill="#F1F1F1" rx="99.0484" ry="26.1331" style="stroke:#181818;stroke-width:0.5;"/><text fill="#000000" font-family="sans-serif" font-size="14" lengthAdjust="spacing" textLength="93.3652" x="91.3657" y="619.2443">Anexos / PDFs</text><text fill="#000000" font-family="sans-serif" font-size="14" lengthAdjust="spacing" textLength="146.2275" x="64.9346" y="636.8536">(SOL, FOR, EST, TCC)</text></g><!--entity S1--><g class="entity" data-qualified-name="S1" data-source-line="278" id="ent0002"><ellipse cx="604.5" cy="70.2188" fill="#F1F1F1" rx="8" ry="8" style="stroke:#181818;stroke-width:0.5;"/><path d="M604.5,78.2188 L604.5,105.2188 M591.5,86.2188 L617.5,86.2188 M604.5,105.2188 L591.5,120.2188 M604.5,105.2188 L617.5,120.2188" fill="none" style="stroke:#181818;stroke-width:0.5;"/><text fill="#000000" font-family="sans-serif" font-size="14" lengthAdjust="spacing" textLength="17.124" x="592.0552" y="136.252">S1</text><text fill="#000000" font-family="sans-serif" font-size="14" lengthAdjust="spacing" textLength="24.8896" x="592.0552" y="153.8613">IAM</text></g><!--entity S2--><g class="entity" data-qualified-name="S2" data-source-line="279" id="ent0003"><ellipse cx="604.4136" cy="200.2188" fill="#F1F1F1" rx="8" ry="8" style="stroke:#181818;stroke-width:0.5;"/><path d="M604.4136,208.2188 L604.4136,235.2188 M591.4136,216.2188 L617.4136,216.2188 M604.4136,235.2188 L591.4136,250.2188 M604.4136,235.2188 L617.4136,250.2188" fill="none" style="stroke:#181818;stroke-width:0.5;"/><text fill="#000000" font-family="sans-serif" font-size="14" lengthAdjust="spacing" textLength="17.124" x="551.5" y="266.252">S2</text><text fill="#000000" font-family="sans-serif" font-size="14" lengthAdjust="spacing" textLength="105.8271" x="551.5" y="283.8613">Notificacoes Hub</text></g><!--entity S3--><g class="entity" data-qualified-name="S3" data-source-line="280" id="ent0004"><ellipse cx="604.5654" cy="408.2188" fill="#F1F1F1" rx="8" ry="8" style="stroke:#181818;stroke-width:0.5;"/><path d="M604.5654,416.2188 L604.5654,443.2188 M591.5654,424.2188 L617.5654,424.2188 M604.5654,443.2188 L591.5654,458.2188 M604.5654,443.2188 L617.5654,458.2188" fill="none" style="stroke:#181818;stroke-width:0.5;"/><text fill="#000000" font-family="sans-serif" font-size="14" lengthAdjust="spacing" textLength="17.124" x="557.5" y="474.252">S3</text><text fill="#000000" font-family="sans-serif" font-size="14" lengthAdjust="spacing" textLength="94.1309" x="557.5" y="491.8613">Motor workflow</text></g><!--entity S4--><g class="entity" data-qualified-name="S4" data-source-line="281" id="ent0005"><ellipse cx="604.6274" cy="538.2188" fill="#F1F1F1" rx="8" ry="8" style="stroke:#181818;stroke-width:0.5;"/><path d="M604.6274,546.2188 L604.6274,573.2188 M591.6274,554.2188 L617.6274,554.2188 M604.6274,573.2188 L591.6274,588.2188 M604.6274,573.2188 L617.6274,588.2188" fill="none" style="stroke:#181818;stroke-width:0.5;"/><text fill="#000000" font-family="sans-serif" font-size="14" lengthAdjust="spacing" textLength="17.124" x="542" y="604.252">S4</text><text fill="#000000" font-family="sans-serif" font-size="14" lengthAdjust="spacing" textLength="125.2549" x="542" y="621.8613">Emissor certificados</text></g><!--entity S5--><g class="entity" data-qualified-name="S5" data-source-line="282" id="ent0006"><ellipse cx="604.5239" cy="668.2188" fill="#F1F1F1" rx="8" ry="8" style="stroke:#181818;stroke-width:0.5;"/><path d="M604.5239,676.2188 L604.5239,703.2188 M591.5239,684.2188 L617.5239,684.2188 M604.5239,703.2188 L591.5239,718.2188 M604.5239,703.2188 L617.5239,718.2188" fill="none" style="stroke:#181818;stroke-width:0.5;"/><text fill="#000000" font-family="sans-serif" font-size="14" lengthAdjust="spacing" textLength="17.124" x="559" y="734.252">S5</text><text fill="#000000" font-family="sans-serif" font-size="14" lengthAdjust="spacing" textLength="91.0479" x="559" y="751.8613">Object storage</text></g><g class="entity" data-qualified-name="GMN17" data-source-line="298" id="ent0018"><path d="M468,321.7188 L468,364.4219 A0,0 0 0 0 468,364.4219 L741.1924,364.4219 A0,0 0 0 0 741.1924,364.4219 L741.1924,331.7188 L731.1924,321.7188 L608.5,321.7188 L604.5,286.8988 L600.5,321.7188 L468,321.7188 A0,0 0 0 0 468,321.7188" fill="#FEFFDD" style="stroke:#181818;stroke-width:0.5;"/><path d="M731.1924,321.7188 L731.1924,331.7188 L741.1924,331.7188 L731.1924,321.7188" fill="#FEFFDD" style="stroke:#181818;stroke-width:0.5;"/><text fill="#000000" font-family="sans-serif" font-size="13" lengthAdjust="spacing" textLength="252.1924" x="474" y="340.2139">S2 tambem consome Outbox para entregas</text><text fill="#000000" font-family="sans-serif" font-size="13" lengthAdjust="spacing" textLength="239.1606" x="474" y="356.5654">consistentes com o banco (ADR Outbox).</text></g><!--link z1 to S1--><g class="link" data-entity-1="ent0008" data-entity-2="ent0002" data-link-type="dependency" data-source-line="291" id="lnk12"><path d="M179.02,337.2688 C240.46,300.7788 362.05,229.6588 468,174.2188 C512.39,150.9987 560.9488,128.5338 585.1888,117.5038" fill="none" id="z1-to-S1" style="stroke:#181818;stroke-width:1;stroke-dasharray:7,7;"/><polygon fill="#181818" points="590.65,115.0187,580.8015,115.1055,586.099,117.0896,584.1149,122.3871,590.65,115.0187" style="stroke:#181818;stroke-width:1;"/><text fill="#000000" font-family="sans-serif" font-size="13" lengthAdjust="spacing" textLength="90.3271" x="316.5" y="190.7139">tokens / sessao</text></g><!--link z2 to S3--><g class="link" data-entity-1="ent0009" data-entity-2="ent0004" data-link-type="dependency" data-source-line="292" id="lnk13"><path d="M252.63,447.2188 C350.53,447.2188 480.86,447.2188 551.29,447.2188" fill="none" id="z2-to-S3" style="stroke:#181818;stroke-width:1;stroke-dasharray:7,7;"/><polygon fill="#181818" points="557.29,447.2188,548.29,443.2188,552.29,447.2188,548.29,451.2188,557.29,447.2188" style="stroke:#181818;stroke-width:1;"/><text fill="#000000" font-family="sans-serif" font-size="13" lengthAdjust="spacing" textLength="151.728" x="286" y="443.7139">workflow_json / transicoes</text></g><!--link z2 to S2--><g class="link" data-entity-1="ent0009" data-entity-2="ent0003" data-link-type="dependency" data-source-line="293" id="lnk14"><path d="M210.79,427.5288 C232.36,420.8988 255.9,412.9488 277,404.2188 C365.54,367.5988 382.35,347.1688 468,304.2188 C495.4,290.4788 520.7805,278.2335 546.0805,266.2135" fill="none" id="z2-to-S2" style="stroke:#181818;stroke-width:1;stroke-dasharray:7,7;"/><polygon fill="#181818" points="551.5,263.6388,541.6543,263.8879,546.9838,265.7844,545.0873,271.1139,551.5,263.6388" style="stroke:#181818;stroke-width:1;"/><text fill="#000000" font-family="sans-serif" font-size="13" lengthAdjust="spacing" textLength="121.3926" x="301" y="317.7139">e-mail / push / in-app</text></g><!--link z3 to S4--><g class="link" data-entity-1="ent0010" data-entity-2="ent0005" data-link-type="dependency" data-source-line="294" id="lnk15"><path d="M246.44,545.6988 C338.09,553.7887 460.6332,564.6114 535.8832,571.2514" fill="none" id="z3-to-S4" style="stroke:#181818;stroke-width:1;stroke-dasharray:7,7;"/><polygon fill="#181818" points="541.86,571.7788,533.2464,567.0032,536.8794,571.3393,532.5432,574.9722,541.86,571.7788" style="stroke:#181818;stroke-width:1;"/><text fill="#000000" font-family="sans-serif" font-size="13" lengthAdjust="spacing" textLength="135.8398" x="294" y="546.7139">hash / assinatura / PDF</text></g><!--link z4 to S5--><g class="link" data-entity-1="ent0011" data-entity-2="ent0006" data-link-type="dependency" data-source-line="295" id="lnk16"><path d="M220.71,639.6388 C319.11,657.0188 474.9514,684.5253 552.8714,698.2853" fill="none" id="z4-to-S5" style="stroke:#181818;stroke-width:1;stroke-dasharray:7,7;"/><polygon fill="#181818" points="558.78,699.3288,550.6127,693.8246,553.8562,698.4592,549.2215,701.7027,558.78,699.3288" style="stroke:#181818;stroke-width:1;"/><text fill="#000000" font-family="sans-serif" font-size="13" lengthAdjust="spacing" textLength="104.7554" x="309.5" y="647.7139">blobs (S3 / MinIO)</text></g><?plantuml-src RP9FRzf04CNl-ob6d43256pJIZrKGeIqaKf1c5mgIzNO3B31daMxQuKIzRjt5YTMfFRayRxVc_tpncjV4MHKMl9eDQwuqamnHE2qyrIZ0xfuicmSzBC986JJGSvhF6X6Y657a2ZbJfhFQB66CvOdF53cVqjRIwL7FbIaAjfxy0QiFXmzx7HGj66biFJ6GY-RvFmmM_P0ziictMgSym_ZzLwNM1foyAqfMYJka2JdfGdbix6dVMMUMo3fW3JdHQsTav-IRDjiProBfHqspNbLFCcnmCc2NA45fagzNWbwSrDX8Lg91afJ__j2DyjFU540ZQCIdPY-skPiu74UpHwtqJWyu5lzyOPV9_-bizNtZhxLdrewVa-BDj-4hiCEcmvpblf-jOd6yMrvlLb4uxHr9-_TCwQBfFe1rdVtBkU--8SWnY4iikqGjlFve7MbwezIrmcCHbya7FWiGPw8WzEHSsZKDMwrHBIt67uzESE2U8liT4YlmsB1AAfHLwAV6tUKZ-O8psTrJLea5UI8DmMTar7pZSNsgEgQjinKcA8oHHZCHBIbveVLG2asdg0mtaj4PXzc1SAU7kk2QWcEdQa9Leqlp0N2r0AnjtH09s2GGwpiPTn2o0OAvD90VtQtUJKDHefu1s4VzHS0?></g></svg>