<?plantuml 1.2026.1?><svg xmlns="http://www.w3.org/2000/svg" xmlns:xlink="http://www.w3.org/1999/xlink" contentStyleType="text/css" data-diagram-type="DESCRIPTION" height="1129px" preserveAspectRatio="none" style="width:368px;height:1129px;background:#FFFFFF;" version="1.1" viewBox="0 0 368 1129" width="368px" zoomAndPan="magnify"><title>UC por ator - A8 Coordenador</title><defs/><g><g class="title" data-source-line="278"><text fill="#000000" font-family="Helvetica" font-size="14" font-weight="bold" lengthAdjust="spacing" textLength="199.1172" x="77.4414" y="24.5332">UC por ator - A8 Coordenador</text></g><!--cluster Casos de uso--><g class="cluster" data-qualified-name="Casos de uso" data-source-line="287" id="ent0003"><rect fill="none" height="1078" rx="4" ry="4" style="stroke:#181818;stroke-width:1;" width="230" x="132" y="45.6094"/><text fill="#000000" font-family="Helvetica" font-size="14" font-weight="bold" lengthAdjust="spacing" textLength="91.0273" x="201.4863" y="62.1426">Casos de uso</text></g><!--entity UC_A01--><g class="entity" data-qualified-name="Casos de uso.UC_A01" data-source-line="288" id="ent0004"><ellipse cx="246.7838" cy="108.8552" fill="#F1F1F1" rx="59.7838" ry="27.2458" style="stroke:#181818;stroke-width:0.5;"/><text fill="#000000" font-family="Helvetica" font-size="14" lengthAdjust="spacing" textLength="73.1172" x="210.2252" y="104.4122">UC-AUT-01</text><text fill="#000000" font-family="Helvetica" font-size="14" lengthAdjust="spacing" textLength="82.4824" x="205.5426" y="122.0216">Autenticar-se</text></g><!--entity UC_A05--><g class="entity" data-qualified-name="Casos de uso.UC_A05" data-source-line="289" id="ent0005"><ellipse cx="247.2302" cy="196.7774" fill="#F1F1F1" rx="77.2302" ry="26.168" style="stroke:#181818;stroke-width:0.5;"/><text fill="#000000" font-family="Helvetica" font-size="14" lengthAdjust="spacing" textLength="73.1172" x="210.6716" y="190.7234">UC-AUT-05</text><text fill="#000000" font-family="Helvetica" font-size="14" lengthAdjust="spacing" textLength="112.8408" x="190.8098" y="208.3328">Perfil e seguranca</text></g><!--entity UC_A06--><g class="entity" data-qualified-name="Casos de uso.UC_A06" data-source-line="290" id="ent0006"><ellipse cx="247.1334" cy="283.7693" fill="#F1F1F1" rx="99.1334" ry="25.66" style="stroke:#181818;stroke-width:0.5;"/><text fill="#000000" font-family="Helvetica" font-size="14" lengthAdjust="spacing" textLength="73.1172" x="210.5748" y="276.9213">UC-AUT-06</text><text fill="#000000" font-family="Helvetica" font-size="14" lengthAdjust="spacing" textLength="149.4131" x="172.4268" y="294.5306">Preferencias notificacao</text></g><!--entity UC_D05--><g class="entity" data-qualified-name="Casos de uso.UC_D05" data-source-line="291" id="ent0007"><ellipse cx="247.0117" cy="370.3835" fill="#F1F1F1" rx="76.0117" ry="26.2741" style="stroke:#181818;stroke-width:0.5;"/><text fill="#000000" font-family="Helvetica" font-size="14" lengthAdjust="spacing" textLength="74.6758" x="209.6738" y="364.4924">UC-CAD-05</text><text fill="#000000" font-family="Helvetica" font-size="14" lengthAdjust="spacing" textLength="110.4824" x="191.7705" y="382.1017">Parametros curso</text></g><!--entity UC_D04--><g class="entity" data-qualified-name="Casos de uso.UC_D04" data-source-line="292" id="ent0008"><ellipse cx="247.1431" cy="459.4654" fill="#F1F1F1" rx="54.6431" ry="27.356" style="stroke:#181818;stroke-width:0.5;"/><text fill="#000000" font-family="Helvetica" font-size="14" lengthAdjust="spacing" textLength="74.6758" x="209.8052" y="456.7484">UC-CAD-04</text><text fill="#000000" font-family="Helvetica" font-size="14" lengthAdjust="spacing" textLength="67.71" x="213.2882" y="474.3578">Calendario</text></g><!--entity UC_M09--><g class="entity" data-qualified-name="Casos de uso.UC_M09" data-source-line="293" id="ent0009"><ellipse cx="246.9742" cy="548.5628" fill="#F1F1F1" rx="73.4742" ry="26.4535" style="stroke:#181818;stroke-width:0.5;"/><text fill="#000000" font-family="Helvetica" font-size="14" lengthAdjust="spacing" textLength="76.2275" x="208.8604" y="542.9446">UC-ADM-09</text><text fill="#000000" font-family="Helvetica" font-size="14" lengthAdjust="spacing" textLength="105.8271" x="194.0606" y="560.554">Relatorios coord.</text></g><!--entity UC_S06--><g class="entity" data-qualified-name="Casos de uso.UC_S06" data-source-line="294" id="ent0010"><ellipse cx="247.0398" cy="636.6471" fill="#F1F1F1" rx="69.0398" ry="26.5377" style="stroke:#181818;stroke-width:0.5;"/><text fill="#000000" font-family="Helvetica" font-size="14" lengthAdjust="spacing" textLength="73.1309" x="210.4744" y="631.156">UC-SOL-06</text><text fill="#000000" font-family="Helvetica" font-size="14" lengthAdjust="spacing" textLength="98.8135" x="197.6331" y="648.7654">Fila solicitacoes</text></g><!--entity UC_S04--><g class="entity" data-qualified-name="Casos de uso.UC_S04" data-source-line="295" id="ent0011"><ellipse cx="247.2136" cy="724.8099" fill="#F1F1F1" rx="52.2136" ry="26.7005" style="stroke:#181818;stroke-width:0.5;"/><text fill="#000000" font-family="Helvetica" font-size="14" lengthAdjust="spacing" textLength="73.1309" x="210.6482" y="723.0566">UC-SOL-04</text><text fill="#000000" font-family="Helvetica" font-size="14" lengthAdjust="spacing" textLength="56.7998" x="218.8137" y="740.666">Deliberar</text></g><!--entity UC_P02--><g class="entity" data-qualified-name="Casos de uso.UC_P02" data-source-line="296" id="ent0012"><ellipse cx="247.1614" cy="812.4518" fill="#F1F1F1" rx="73.6614" ry="26.3424" style="stroke:#181818;stroke-width:0.5;"/><text fill="#000000" font-family="Helvetica" font-size="14" lengthAdjust="spacing" textLength="73.9033" x="210.2098" y="806.6648">UC-PRE-02</text><text fill="#000000" font-family="Helvetica" font-size="14" lengthAdjust="spacing" textLength="106.6133" x="193.8548" y="824.2742">Operar validacao</text></g><!--entity UC_DASH--><g class="entity" data-qualified-name="Casos de uso.UC_DASH" data-source-line="297" id="ent0013"><ellipse cx="246.9703" cy="901.4915" fill="#F1F1F1" rx="59.9703" ry="26.8821" style="stroke:#181818;stroke-width:0.5;"/><text fill="#000000" font-family="Helvetica" font-size="14" lengthAdjust="spacing" textLength="84.0137" x="204.9635" y="899.4681">UC-DASH-01</text><text fill="#000000" font-family="Helvetica" font-size="14" lengthAdjust="spacing" textLength="68.4893" x="212.7257" y="917.0775">Dashboard</text></g><!--entity UC_M10--><g class="entity" data-qualified-name="Casos de uso.UC_M10" data-source-line="298" id="ent0014"><ellipse cx="247.0104" cy="991.7163" fill="#F1F1F1" rx="59.0104" ry="27.6069" style="stroke:#181818;stroke-width:0.5;"/><text fill="#000000" font-family="Helvetica" font-size="14" lengthAdjust="spacing" textLength="76.2275" x="208.8966" y="987.7945">UC-ADM-10</text><text fill="#000000" font-family="Helvetica" font-size="14" lengthAdjust="spacing" textLength="80.165" x="206.9279" y="1005.4038">Busca global</text></g><!--entity UC_C01--><g class="entity" data-qualified-name="Casos de uso.UC_C01" data-source-line="299" id="ent0015"><ellipse cx="246.7837" cy="1080.4553" fill="#F1F1F1" rx="77.2837" ry="26.3459" style="stroke:#181818;stroke-width:0.5;"/><text fill="#000000" font-family="Helvetica" font-size="14" lengthAdjust="spacing" textLength="77.7793" x="207.8941" y="1074.6738">UC-COM-01</text><text fill="#000000" font-family="Helvetica" font-size="14" lengthAdjust="spacing" textLength="112.0615" x="190.753" y="1092.2831">Hub comunicacao</text></g><!--entity A8--><g class="entity" data-qualified-name="A8" data-source-line="286" id="ent0002"><ellipse cx="46.8618" cy="561.1094" fill="#F1F1F1" rx="16" ry="16" style="stroke:#181818;stroke-width:0.5;"/><path d="M46.8618,581.1094 C50.8618,581.1094 53.8618,581.1094 57.8618,577.1094 C65.8618,577.1094 73.8618,585.1094 73.8618,593.1094 L73.8618,597.1094 C73.8618,601.1094 69.8618,605.1094 65.8618,605.1094 L27.8618,605.1094 C23.8618,605.1094 19.8618,601.1094 19.8618,597.1094 L19.8618,593.1094 C19.8618,585.1094 27.8618,577.1094 35.8618,577.1094 C39.8618,581.1094 42.8618,581.1094 46.8618,581.1094" fill="#F1F1F1" style="stroke:#181818;stroke-width:0.5;"/><text fill="#000000" font-family="Helvetica" font-size="14" lengthAdjust="spacing" textLength="17.124" x="6" y="620.1426">A8</text><text fill="#000000" font-family="Helvetica" font-size="14" lengthAdjust="spacing" textLength="81.7236" x="6" y="637.752">Coordenador</text></g><!--link A8 to UC_A01--><g class="link" data-entity-1="ent0002" data-entity-2="ent0004" data-link-type="dependency" data-source-line="301" id="lnk16"><path d="M50.32,544.5294 C56.14,443.0494 74.62,211.4894 124,152.6094 C140.28,133.1994 159.9999,123.847 183.5099,117.787" fill="none" id="A8-to-UC_A01" style="stroke:#181818;stroke-width:1.5;"/><polygon fill="#181818" points="189.32,116.2894,179.6065,114.6624,184.4783,117.5374,181.6033,122.4092,189.32,116.2894" style="stroke:#181818;stroke-width:1.5;"/></g><!--link A8 to UC_A05--><g class="link" data-entity-1="ent0002" data-entity-2="ent0005" data-link-type="dependency" data-source-line="302" id="lnk17"><path d="M52.64,544.4094 C61.79,458.9194 84.74,285.4894 124,240.6094 C137.86,224.7594 152.1679,216.4865 171.9879,209.9965" fill="none" id="A8-to-UC_A05" style="stroke:#181818;stroke-width:1.5;"/><polygon fill="#181818" points="177.69,208.1294,167.8921,207.1287,172.9383,209.6853,170.3816,214.7315,177.69,208.1294" style="stroke:#181818;stroke-width:1.5;"/></g><!--link A8 to UC_A06--><g class="link" data-entity-1="ent0002" data-entity-2="ent0006" data-link-type="dependency" data-source-line="303" id="lnk18"><path d="M48.92,544.3994 C52.62,485.5894 67.55,386.5894 124,326.6094 C135.77,314.0994 145.8212,307.4122 161.9512,301.1122" fill="none" id="A8-to-UC_A06" style="stroke:#181818;stroke-width:1.5;"/><polygon fill="#181818" points="167.54,298.9294,157.7015,298.4778,162.8826,300.7484,160.612,305.9296,167.54,298.9294" style="stroke:#181818;stroke-width:1.5;"/></g><!--link A8 to UC_D05--><g class="link" data-entity-1="ent0002" data-entity-2="ent0007" data-link-type="dependency" data-source-line="304" id="lnk19"><path d="M57.35,544.5194 C67.43,504.7394 87.23,449.3294 124,414.6094 C139.55,399.9294 154.6597,391.952 174.6897,385.372" fill="none" id="A8-to-UC_D05" style="stroke:#181818;stroke-width:1.5;"/><polygon fill="#181818" points="180.39,383.4994,170.5912,382.5081,175.6398,385.0599,173.0879,390.1085,180.39,383.4994" style="stroke:#181818;stroke-width:1.5;"/></g><!--link A8 to UC_D04--><g class="link" data-entity-1="ent0002" data-entity-2="ent0008" data-link-type="dependency" data-source-line="305" id="lnk20"><path d="M82.05,544.4694 C94.01,530.1494 108.4,515.4194 124,504.6094 C146.08,489.3094 168.2608,480.2592 191.8108,473.0792" fill="none" id="A8-to-UC_D04" style="stroke:#181818;stroke-width:1.5;"/><polygon fill="#181818" points="197.55,471.3294,187.7747,470.1279,192.7673,472.7875,190.1077,477.7802,197.55,471.3294" style="stroke:#181818;stroke-width:1.5;"/></g><!--link A8 to UC_M09--><g class="link" data-entity-1="ent0002" data-entity-2="ent0009" data-link-type="dependency" data-source-line="306" id="lnk21"><path d="M88.07,583.7094 C115.64,577.5794 146.943,570.6216 178.293,563.6516" fill="none" id="A8-to-UC_M09" style="stroke:#181818;stroke-width:1.5;"/><polygon fill="#181818" points="184.15,562.3494,174.4964,560.398,179.2692,563.4345,176.2326,568.2073,184.15,562.3494" style="stroke:#181818;stroke-width:1.5;"/></g><!--link A8 to UC_S06--><g class="link" data-entity-1="ent0002" data-entity-2="ent0010" data-link-type="dependency" data-source-line="307" id="lnk22"><path d="M88.07,601.5094 C116.43,607.8194 149.083,615.0672 180.973,622.1572" fill="none" id="A8-to-UC_S06" style="stroke:#181818;stroke-width:1.5;"/><polygon fill="#181818" points="186.83,623.4594,178.9126,617.6015,181.9492,622.3742,177.1764,625.4108,186.83,623.4594" style="stroke:#181818;stroke-width:1.5;"/></g><!--link A8 to UC_S04--><g class="link" data-entity-1="ent0002" data-entity-2="ent0011" data-link-type="dependency" data-source-line="308" id="lnk23"><path d="M82,640.8094 C93.96,655.1394 108.36,669.8594 124,680.6094 C146.64,696.1694 169.6396,705.2109 193.5596,712.1809" fill="none" id="A8-to-UC_S04" style="stroke:#181818;stroke-width:1.5;"/><polygon fill="#181818" points="199.32,713.8594,191.7984,707.5013,194.5196,712.4606,189.5603,715.1819,199.32,713.8594" style="stroke:#181818;stroke-width:1.5;"/></g><!--link A8 to UC_P02--><g class="link" data-entity-1="ent0002" data-entity-2="ent0012" data-link-type="dependency" data-source-line="309" id="lnk24"><path d="M57.7,640.9494 C67.92,680.2294 87.75,734.5194 124,768.6094 C139.99,783.6494 155.7871,791.7757 176.2871,798.3557" fill="none" id="A8-to-UC_P02" style="stroke:#181818;stroke-width:1.5;"/><polygon fill="#181818" points="182,800.1894,174.6531,793.6302,177.2392,798.6613,172.2081,801.2474,182,800.1894" style="stroke:#181818;stroke-width:1.5;"/></g><!--link A8 to UC_DASH--><g class="link" data-entity-1="ent0002" data-entity-2="ent0013" data-link-type="dependency" data-source-line="310" id="lnk25"><path d="M49.21,640.8394 C53.22,699.1494 68.47,796.8694 124,856.6094 C141.29,875.2094 161.1652,884.5668 184.4852,890.9868" fill="none" id="A8-to-UC_DASH" style="stroke:#181818;stroke-width:1.5;"/><polygon fill="#181818" points="190.27,892.5794,182.6545,886.334,185.4493,891.2522,180.5311,894.0471,190.27,892.5794" style="stroke:#181818;stroke-width:1.5;"/></g><!--link A8 to UC_M10--><g class="link" data-entity-1="ent0002" data-entity-2="ent0014" data-link-type="dependency" data-source-line="311" id="lnk26"><path d="M52.69,640.8894 C61.91,726.5294 84.98,900.3094 124,945.6094 C140.92,965.2494 161.3198,974.9464 185.0998,981.4064" fill="none" id="A8-to-UC_M10" style="stroke:#181818;stroke-width:1.5;"/><polygon fill="#181818" points="190.89,982.9794,183.2534,976.7599,186.0649,981.6686,181.1561,984.4801,190.89,982.9794" style="stroke:#181818;stroke-width:1.5;"/></g><!--link A8 to UC_C01--><g class="link" data-entity-1="ent0002" data-entity-2="ent0015" data-link-type="dependency" data-source-line="312" id="lnk27"><path d="M50.24,640.7394 C55.92,742.9294 74.17,977.0994 124,1036.6094 C137.37,1052.5794 151.3124,1060.8686 170.9424,1067.3486" fill="none" id="A8-to-UC_C01" style="stroke:#181818;stroke-width:1.5;"/><polygon fill="#181818" points="176.64,1069.2294,169.3475,1062.6098,171.892,1067.662,166.8397,1070.2065,176.64,1069.2294" style="stroke:#181818;stroke-width:1.5;"/></g><?plantuml-src RLF1RgCm4Btp5QFSgKZLHEbb9HQsoc6pYKfpGwecPY1M73iQcqQhrVxx6he93iq5CSnxR-Oz6oUT8jXcS38CwFmZXdG1cJ5SaSRAS6GFKf-GyGWLrTWgzsAq-uL7WYMf3t9IO80veJXWGuNxxNMPX4FTA0e0TkzLpr8tKAEoOOTDgojXM1F38lYEmk_rAOXdikOOab9cStxRIt7GP2rC7sQHejg1Cy2osJkePBU5D3hgTM2IBaeT-9i0Mcyv-hyuJ3Aqndglq5epWJyH-1SIQ7rhcyNfzYrEfgLEMqUwyywnfLvZcxsdoVGUV5Rg3N4j5H1OQbf6BN3WpEvnvfx3L1EJ5j8ZjN6ozkC4ce4v7p6pDF-SraL3ZhqFqRAzCl8lith6amy45UaAMGROf_5U-IfEdalzIggxAR9Jxt9yk51MoVE8Kgn_zbPUf4AmHaaX7Gf3za8fldZeANwZd9JS4ICFqF52czSVSV9OwlMfmy47Abc50MsInn4ZJujbVtmvsltE85TNkxvpn-yqAVNtrWg4HfaTgglLQJ9EShtgbPVjpiToRFNjOMN-QloD_AyLnzykLoMiPZVLFAZocrvtB4FL9JvKnGslk45sMGGgdTj0nhiPAh_gFm00?></g></svg>