<?plantuml 1.2026.1?><svg xmlns="http://www.w3.org/2000/svg" xmlns:xlink="http://www.w3.org/1999/xlink" contentStyleType="text/css" data-diagram-type="DESCRIPTION" height="505px" preserveAspectRatio="none" style="width:340px;height:505px;background:#FFFFFF;" version="1.1" viewBox="0 0 340 505" width="340px" zoomAndPan="magnify"><title>UC por ator - A3 Egresso</title><defs/><g><g class="title" data-source-line="93"><text fill="#000000" font-family="Helvetica" font-size="14" font-weight="bold" lengthAdjust="spacing" textLength="166.4756" x="80.0122" y="24.5332">UC por ator - A3 Egresso</text></g><!--cluster Casos de uso--><g class="cluster" data-qualified-name="Casos de uso" data-source-line="102" id="ent0003"><rect fill="none" height="454" rx="4" ry="4" style="stroke:#181818;stroke-width:1;" width="230" x="104.5" y="45.6094"/><text fill="#000000" font-family="Helvetica" font-size="14" font-weight="bold" lengthAdjust="spacing" textLength="91.0273" x="173.9863" y="62.1426">Casos de uso</text></g><!--entity UC_A01--><g class="entity" data-qualified-name="Casos de uso.UC_A01" data-source-line="103" id="ent0004"><ellipse cx="219.2838" cy="108.8552" fill="#F1F1F1" rx="59.7838" ry="27.2458" style="stroke:#181818;stroke-width:0.5;"/><text fill="#000000" font-family="Helvetica" font-size="14" lengthAdjust="spacing" textLength="73.1172" x="182.7252" y="104.4122">UC-AUT-01</text><text fill="#000000" font-family="Helvetica" font-size="14" lengthAdjust="spacing" textLength="82.4824" x="178.0426" y="122.0216">Autenticar-se</text></g><!--entity UC_A05--><g class="entity" data-qualified-name="Casos de uso.UC_A05" data-source-line="104" id="ent0005"><ellipse cx="219.7302" cy="196.7774" fill="#F1F1F1" rx="77.2302" ry="26.168" style="stroke:#181818;stroke-width:0.5;"/><text fill="#000000" font-family="Helvetica" font-size="14" lengthAdjust="spacing" textLength="73.1172" x="183.1716" y="190.7234">UC-AUT-05</text><text fill="#000000" font-family="Helvetica" font-size="14" lengthAdjust="spacing" textLength="112.8408" x="163.3098" y="208.3328">Perfil e seguranca</text></g><!--entity UC_A06--><g class="entity" data-qualified-name="Casos de uso.UC_A06" data-source-line="105" id="ent0006"><ellipse cx="219.6334" cy="283.7693" fill="#F1F1F1" rx="99.1334" ry="25.66" style="stroke:#181818;stroke-width:0.5;"/><text fill="#000000" font-family="Helvetica" font-size="14" lengthAdjust="spacing" textLength="73.1172" x="183.0748" y="276.9213">UC-AUT-06</text><text fill="#000000" font-family="Helvetica" font-size="14" lengthAdjust="spacing" textLength="149.4131" x="144.9268" y="294.5306">Preferencias notificacao</text></g><!--entity UC_G01--><g class="entity" data-qualified-name="Casos de uso.UC_G01" data-source-line="106" id="ent0007"><ellipse cx="219.4966" cy="370.6676" fill="#F1F1F1" rx="82.9966" ry="26.0582" style="stroke:#181818;stroke-width:0.5;"/><text fill="#000000" font-family="Helvetica" font-size="14" lengthAdjust="spacing" textLength="75.4551" x="181.769" y="364.4441">UC-EGR-01</text><text fill="#000000" font-family="Helvetica" font-size="14" lengthAdjust="spacing" textLength="122.1855" x="158.4038" y="382.0535">Dashboard egresso</text></g><!--entity UC_X01--><g class="entity" data-qualified-name="Casos de uso.UC_X01" data-source-line="107" id="ent0008"><ellipse cx="219.5388" cy="457.5257" fill="#F1F1F1" rx="86.5388" ry="25.9164" style="stroke:#181818;stroke-width:0.5;"/><text fill="#000000" font-family="Helvetica" font-size="14" lengthAdjust="spacing" textLength="73.8896" x="182.594" y="451.0816">UC-CRT-01</text><text fill="#000000" font-family="Helvetica" font-size="14" lengthAdjust="spacing" textLength="128.3857" x="155.3459" y="468.691">Certificados proprios</text></g><!--entity A3--><g class="entity" data-qualified-name="A3" data-source-line="101" id="ent0002"><ellipse cx="33" cy="252.1094" fill="#F1F1F1" rx="16" ry="16" style="stroke:#181818;stroke-width:0.5;"/><path d="M33,272.1094 C37,272.1094 40,272.1094 44,268.1094 C52,268.1094 60,276.1094 60,284.1094 L60,288.1094 C60,292.1094 56,296.1094 52,296.1094 L14,296.1094 C10,296.1094 6,292.1094 6,288.1094 L6,284.1094 C6,276.1094 14,268.1094 22,268.1094 C26,272.1094 29,272.1094 33,272.1094" fill="#F1F1F1" style="stroke:#181818;stroke-width:0.5;"/><text fill="#000000" font-family="Helvetica" font-size="14" lengthAdjust="spacing" textLength="17.124" x="7.3208" y="311.1426">A3</text><text fill="#000000" font-family="Helvetica" font-size="14" lengthAdjust="spacing" textLength="51.3584" x="7.3208" y="328.752">Egresso</text></g><!--link A3 to UC_A01--><g class="link" data-entity-1="ent0002" data-entity-2="ent0004" data-link-type="dependency" data-source-line="109" id="lnk9"><path d="M46.98,235.3094 C56.6,207.7794 72.31,174.5094 96.5,152.6094 C115.11,135.7594 134.8785,126.8794 157.7885,120.3694" fill="none" id="A3-to-UC_A01" style="stroke:#181818;stroke-width:1.5;"/><polygon fill="#181818" points="163.56,118.7294,153.8094,117.3417,158.7504,120.096,155.9961,125.0371,163.56,118.7294" style="stroke:#181818;stroke-width:1.5;"/></g><!--link A3 to UC_A05--><g class="link" data-entity-1="ent0002" data-entity-2="ent0005" data-link-type="dependency" data-source-line="110" id="lnk10"><path d="M60.74,262.9694 C71.47,255.2994 84.2,246.9294 96.5,240.6094 C116.93,230.1194 134.7747,222.9464 155.6747,215.7764" fill="none" id="A3-to-UC_A05" style="stroke:#181818;stroke-width:1.5;"/><polygon fill="#181818" points="161.35,213.8294,151.539,212.9663,156.6206,215.4519,154.135,220.5334,161.35,213.8294" style="stroke:#181818;stroke-width:1.5;"/></g><!--link A3 to UC_A06--><g class="link" data-entity-1="ent0002" data-entity-2="ent0006" data-link-type="dependency" data-source-line="111" id="lnk11"><path d="M60.83,283.6094 C76.92,283.6094 92.48,283.6094 114.48,283.6094" fill="none" id="A3-to-UC_A06" style="stroke:#181818;stroke-width:1.5;"/><polygon fill="#181818" points="120.48,283.6094,111.48,279.6094,115.48,283.6094,111.48,287.6094,120.48,283.6094" style="stroke:#181818;stroke-width:1.5;"/></g><!--link A3 to UC_G01--><g class="link" data-entity-1="ent0002" data-entity-2="ent0007" data-link-type="dependency" data-source-line="112" id="lnk12"><path d="M60.74,304.2494 C71.47,311.9194 84.2,320.2894 96.5,326.6094 C116.23,336.7394 133.1706,343.6253 153.5206,350.6753" fill="none" id="A3-to-UC_G01" style="stroke:#181818;stroke-width:1.5;"/><polygon fill="#181818" points="159.19,352.6394,151.9953,345.9136,154.4655,351.0026,149.3765,353.4728,159.19,352.6394" style="stroke:#181818;stroke-width:1.5;"/></g><!--link A3 to UC_X01--><g class="link" data-entity-1="ent0002" data-entity-2="ent0008" data-link-type="dependency" data-source-line="113" id="lnk13"><path d="M47.18,331.8594 C56.84,359.1194 72.52,391.9594 96.5,413.6094 C111.12,426.8094 124.3434,434.1288 142.8634,440.6788" fill="none" id="A3-to-UC_X01" style="stroke:#181818;stroke-width:1.5;"/><polygon fill="#181818" points="148.52,442.6794,141.3688,435.9074,143.8061,441.0122,138.7013,443.4496,148.52,442.6794" style="stroke:#181818;stroke-width:1.5;"/></g><?plantuml-src RP9FIyD04CNl-HH3xv6Mak992B7MaqXjm4D1niqaMPhkXDcDHSJlxlGVNRMN9PDvlxVlmGOREeAoW9u5CEYHGZw5UIFaFIT-OrsFWbkegCQX2m_imXDk2Hwf-w1W3KQQ7iq66te9d-efP0AwfgD8u5kiU6TT0pLsFju83wuoB8u4RgF_Q3JJqH1tv7aRGxa8xrQjDHkdQM5oaoKTrG42WzYc3L3PVGhBBZdum2YVhjsfsmZGQzNa51f61NhssXE6_V8h0VqWWrvNPP7cvIeTJzOk7mAvVMz9FHqyok8j7q-koRErUoQfRGS4dff1q1cyCDarPgQCK4r2pbXLEWwsrkiCyeMS_I7dY-KXt3twzfrHAg2ef2ABVm6BvR5FGNAyeDBolN0lblqPUrNiEz7taAPtvvxnbFsQPj6q-ALKdny0?></g></svg>