<?plantuml 1.2026.1?><svg xmlns="http://www.w3.org/2000/svg" xmlns:xlink="http://www.w3.org/1999/xlink" contentStyleType="text/css" data-diagram-type="DESCRIPTION" height="1039px" preserveAspectRatio="none" style="width:372px;height:1039px;background:#FFFFFF;" version="1.1" viewBox="0 0 372 1039" width="372px" zoomAndPan="magnify"><title>UC por ator - A9 Administrador</title><defs/><g><g class="title" data-source-line="317"><text fill="#000000" font-family="Helvetica" font-size="14" font-weight="bold" lengthAdjust="spacing" textLength="206.9033" x="75.5483" y="24.5332">UC por ator - A9 Administrador</text></g><!--cluster Casos de uso--><g class="cluster" data-qualified-name="Casos de uso" data-source-line="326" id="ent0003"><rect fill="none" height="988" rx="4" ry="4" style="stroke:#181818;stroke-width:1;" width="230" x="136" y="45.6094"/><text fill="#000000" font-family="Helvetica" font-size="14" font-weight="bold" lengthAdjust="spacing" textLength="91.0273" x="205.4863" y="62.1426">Casos de uso</text></g><!--entity UC_A01--><g class="entity" data-qualified-name="Casos de uso.UC_A01" data-source-line="327" id="ent0004"><ellipse cx="250.7838" cy="108.8552" fill="#F1F1F1" rx="59.7838" ry="27.2458" style="stroke:#181818;stroke-width:0.5;"/><text fill="#000000" font-family="Helvetica" font-size="14" lengthAdjust="spacing" textLength="73.1172" x="214.2252" y="104.4122">UC-AUT-01</text><text fill="#000000" font-family="Helvetica" font-size="14" lengthAdjust="spacing" textLength="82.4824" x="209.5426" y="122.0216">Autenticar-se</text></g><!--entity UC_A05--><g class="entity" data-qualified-name="Casos de uso.UC_A05" data-source-line="328" id="ent0005"><ellipse cx="251.2302" cy="196.7774" fill="#F1F1F1" rx="77.2302" ry="26.168" style="stroke:#181818;stroke-width:0.5;"/><text fill="#000000" font-family="Helvetica" font-size="14" lengthAdjust="spacing" textLength="73.1172" x="214.6716" y="190.7234">UC-AUT-05</text><text fill="#000000" font-family="Helvetica" font-size="14" lengthAdjust="spacing" textLength="112.8408" x="194.8098" y="208.3328">Perfil e seguranca</text></g><!--entity UC_A06--><g class="entity" data-qualified-name="Casos de uso.UC_A06" data-source-line="329" id="ent0006"><ellipse cx="251.1334" cy="283.7693" fill="#F1F1F1" rx="99.1334" ry="25.66" style="stroke:#181818;stroke-width:0.5;"/><text fill="#000000" font-family="Helvetica" font-size="14" lengthAdjust="spacing" textLength="73.1172" x="214.5748" y="276.9213">UC-AUT-06</text><text fill="#000000" font-family="Helvetica" font-size="14" lengthAdjust="spacing" textLength="149.4131" x="176.4268" y="294.5306">Preferencias notificacao</text></g><!--entity UC_M01--><g class="entity" data-qualified-name="Casos de uso.UC_M01" data-source-line="330" id="ent0007"><ellipse cx="251.0343" cy="370.8429" fill="#F1F1F1" rx="68.5343" ry="26.7335" style="stroke:#181818;stroke-width:0.5;"/><text fill="#000000" font-family="Helvetica" font-size="14" lengthAdjust="spacing" textLength="76.2275" x="212.9205" y="365.6454">UC-ADM-01</text><text fill="#000000" font-family="Helvetica" font-size="14" lengthAdjust="spacing" textLength="97.248" x="202.4103" y="383.2548">CRUD usuarios</text></g><!--entity UC_M02--><g class="entity" data-qualified-name="Casos de uso.UC_M02" data-source-line="331" id="ent0008"><ellipse cx="251.1703" cy="457.8271" fill="#F1F1F1" rx="52.1703" ry="25.7177" style="stroke:#181818;stroke-width:0.5;"/><text fill="#000000" font-family="Helvetica" font-size="14" lengthAdjust="spacing" textLength="76.2275" x="213.0565" y="457.5836">UC-ADM-02</text><text fill="#000000" font-family="Helvetica" font-size="14" lengthAdjust="spacing" textLength="38.8896" x="231.7255" y="475.193">FGAC</text></g><!--entity UC_M03--><g class="entity" data-qualified-name="Casos de uso.UC_M03" data-source-line="332" id="ent0009"><ellipse cx="251.1203" cy="544.6319" fill="#F1F1F1" rx="72.1203" ry="26.5225" style="stroke:#181818;stroke-width:0.5;"/><text fill="#000000" font-family="Helvetica" font-size="14" lengthAdjust="spacing" textLength="76.2275" x="213.0065" y="539.118">UC-ADM-03</text><text fill="#000000" font-family="Helvetica" font-size="14" lengthAdjust="spacing" textLength="103.4893" x="199.3756" y="556.7274">Tipos solicitacao</text></g><!--entity UC_C03--><g class="entity" data-qualified-name="Casos de uso.UC_C03" data-source-line="333" id="ent0010"><ellipse cx="251.0164" cy="633.6154" fill="#F1F1F1" rx="56.0164" ry="27.006" style="stroke:#181818;stroke-width:0.5;"/><text fill="#000000" font-family="Helvetica" font-size="14" lengthAdjust="spacing" textLength="77.7793" x="212.1267" y="631.4092">UC-COM-03</text><text fill="#000000" font-family="Helvetica" font-size="14" lengthAdjust="spacing" textLength="65.3584" x="218.3372" y="649.0185">Templates</text></g><!--entity UC_M04--><g class="entity" data-qualified-name="Casos de uso.UC_M04" data-source-line="334" id="ent0011"><ellipse cx="250.7737" cy="723.5624" fill="#F1F1F1" rx="60.2737" ry="27.453" style="stroke:#181818;stroke-width:0.5;"/><text fill="#000000" font-family="Helvetica" font-size="14" lengthAdjust="spacing" textLength="76.2275" x="212.6599" y="719.4194">UC-ADM-04</text><text fill="#000000" font-family="Helvetica" font-size="14" lengthAdjust="spacing" textLength="82.4893" x="209.5291" y="737.0287">Outbox / jobs</text></g><!--entity UC_M05--><g class="entity" data-qualified-name="Casos de uso.UC_M05" data-source-line="335" id="ent0012"><ellipse cx="251.2125" cy="812.5396" fill="#F1F1F1" rx="53.7125" ry="26.4302" style="stroke:#181818;stroke-width:0.5;"/><text fill="#000000" font-family="Helvetica" font-size="14" lengthAdjust="spacing" textLength="76.2275" x="213.0987" y="811.193">UC-ADM-05</text><text fill="#000000" font-family="Helvetica" font-size="14" lengthAdjust="spacing" textLength="54.4824" x="223.9713" y="828.8024">Audit log</text></g><!--entity UC_P01--><g class="entity" data-qualified-name="Casos de uso.UC_P01" data-source-line="336" id="ent0013"><ellipse cx="251.0128" cy="901.3787" fill="#F1F1F1" rx="66.0128" ry="26.7693" style="stroke:#181818;stroke-width:0.5;"/><text fill="#000000" font-family="Helvetica" font-size="14" lengthAdjust="spacing" textLength="73.9033" x="214.0611" y="896.2347">UC-PRE-01</text><text fill="#000000" font-family="Helvetica" font-size="14" lengthAdjust="spacing" textLength="93.3652" x="204.3301" y="913.8441">CRUD eventos</text></g><!--entity UC_P04--><g class="entity" data-qualified-name="Casos de uso.UC_P04" data-source-line="337" id="ent0014"><ellipse cx="251.0926" cy="990.6551" fill="#F1F1F1" rx="69.5926" ry="26.5458" style="stroke:#181818;stroke-width:0.5;"/><text fill="#000000" font-family="Helvetica" font-size="14" lengthAdjust="spacing" textLength="73.9033" x="214.141" y="985.1763">UC-PRE-04</text><text fill="#000000" font-family="Helvetica" font-size="14" lengthAdjust="spacing" textLength="99.6064" x="201.2894" y="1002.7856">Encerrar evento</text></g><!--entity A9--><g class="entity" data-qualified-name="A9" data-source-line="325" id="ent0002"><ellipse cx="49.1826" cy="513.1094" fill="#F1F1F1" rx="16" ry="16" style="stroke:#181818;stroke-width:0.5;"/><path d="M49.1826,533.1094 C53.1826,533.1094 56.1826,533.1094 60.1826,529.1094 C68.1826,529.1094 76.1826,537.1094 76.1826,545.1094 L76.1826,549.1094 C76.1826,553.1094 72.1826,557.1094 68.1826,557.1094 L30.1826,557.1094 C26.1826,557.1094 22.1826,553.1094 22.1826,549.1094 L22.1826,545.1094 C22.1826,537.1094 30.1826,529.1094 38.1826,529.1094 C42.1826,533.1094 45.1826,533.1094 49.1826,533.1094" fill="#F1F1F1" style="stroke:#181818;stroke-width:0.5;"/><text fill="#000000" font-family="Helvetica" font-size="14" lengthAdjust="spacing" textLength="17.124" x="6" y="572.1426">A9</text><text fill="#000000" font-family="Helvetica" font-size="14" lengthAdjust="spacing" textLength="86.3652" x="6" y="589.752">Administrador</text></g><!--link A9 to UC_A01--><g class="link" data-entity-1="ent0002" data-entity-2="ent0004" data-link-type="dependency" data-source-line="339" id="lnk15"><path d="M53.72,496.4694 C61.83,403.4694 83.99,203.7594 128,152.6094 C144.52,133.4094 164.2729,124.0987 187.7429,117.9987" fill="none" id="A9-to-UC_A01" style="stroke:#181818;stroke-width:1.5;"/><polygon fill="#181818" points="193.55,116.4894,183.8332,114.8819,188.7108,117.7471,185.8456,122.6247,193.55,116.4894" style="stroke:#181818;stroke-width:1.5;"/></g><!--link A9 to UC_A05--><g class="link" data-entity-1="ent0002" data-entity-2="ent0005" data-link-type="dependency" data-source-line="340" id="lnk16"><path d="M56.8,496.3394 C68.39,420.4394 94.05,277.9494 128,240.6094 C142.16,225.0294 156.5502,216.8434 176.3502,210.3334" fill="none" id="A9-to-UC_A05" style="stroke:#181818;stroke-width:1.5;"/><polygon fill="#181818" points="182.05,208.4594,172.2509,207.4705,177.3001,210.0211,174.7496,215.0703,182.05,208.4594" style="stroke:#181818;stroke-width:1.5;"/></g><!--link A9 to UC_A06--><g class="link" data-entity-1="ent0002" data-entity-2="ent0006" data-link-type="dependency" data-source-line="341" id="lnk17"><path d="M55.16,496.5994 C62.87,447.6394 81.84,372.5494 128,326.6094 C140.34,314.3294 150.7772,307.6961 167.1672,301.4161" fill="none" id="A9-to-UC_A06" style="stroke:#181818;stroke-width:1.5;"/><polygon fill="#181818" points="172.77,299.2694,162.9346,298.7543,168.101,301.0584,165.797,306.2247,172.77,299.2694" style="stroke:#181818;stroke-width:1.5;"/></g><!--link A9 to UC_M01--><g class="link" data-entity-1="ent0002" data-entity-2="ent0007" data-link-type="dependency" data-source-line="342" id="lnk18"><path d="M69.18,496.2994 C82.18,469.0194 101.78,436.1794 128,414.6094 C145.91,399.8794 163.4335,391.6704 184.8235,384.9804" fill="none" id="A9-to-UC_M01" style="stroke:#181818;stroke-width:1.5;"/><polygon fill="#181818" points="190.55,383.1894,180.7663,382.0583,185.778,384.6819,183.1543,389.6935,190.55,383.1894" style="stroke:#181818;stroke-width:1.5;"/></g><!--link A9 to UC_M02--><g class="link" data-entity-1="ent0002" data-entity-2="ent0008" data-link-type="dependency" data-source-line="343" id="lnk19"><path d="M92.21,519.0294 C103.62,512.5994 116.11,506.0094 128,500.6094 C153.36,489.0994 177.0674,480.5148 200.6674,472.7948" fill="none" id="A9-to-UC_M02" style="stroke:#181818;stroke-width:1.5;"/><polygon fill="#181818" points="206.37,470.9294,196.5724,469.9258,201.6178,472.4839,199.0597,477.5293,206.37,470.9294" style="stroke:#181818;stroke-width:1.5;"/></g><!--link A9 to UC_M03--><g class="link" data-entity-1="ent0002" data-entity-2="ent0009" data-link-type="dependency" data-source-line="344" id="lnk20"><path d="M92.41,544.6094 C117.53,544.6094 143.99,544.6094 172.92,544.6094" fill="none" id="A9-to-UC_M03" style="stroke:#181818;stroke-width:1.5;"/><polygon fill="#181818" points="178.92,544.6094,169.92,540.6094,173.92,544.6094,169.92,548.6094,178.92,544.6094" style="stroke:#181818;stroke-width:1.5;"/></g><!--link A9 to UC_C03--><g class="link" data-entity-1="ent0002" data-entity-2="ent0010" data-link-type="dependency" data-source-line="345" id="lnk21"><path d="M92.27,570.0794 C103.68,576.4994 116.15,583.1194 128,588.6094 C152.58,599.9894 175.2623,608.6202 198.4323,616.6702" fill="none" id="A9-to-UC_C03" style="stroke:#181818;stroke-width:1.5;"/><polygon fill="#181818" points="204.1,618.6394,196.9112,611.9072,199.3769,616.9984,194.2857,619.4641,204.1,618.6394" style="stroke:#181818;stroke-width:1.5;"/></g><!--link A9 to UC_M04--><g class="link" data-entity-1="ent0002" data-entity-2="ent0011" data-link-type="dependency" data-source-line="346" id="lnk22"><path d="M68.6,592.9294 C81.55,620.9694 101.29,655.0894 128,677.6094 C147.38,693.9494 167.4251,703.0357 190.2851,710.0657" fill="none" id="A9-to-UC_M04" style="stroke:#181818;stroke-width:1.5;"/><polygon fill="#181818" points="196.02,711.8294,188.5933,705.3606,191.2409,710.3597,186.2418,713.0072,196.02,711.8294" style="stroke:#181818;stroke-width:1.5;"/></g><!--link A9 to UC_M05--><g class="link" data-entity-1="ent0002" data-entity-2="ent0012" data-link-type="dependency" data-source-line="347" id="lnk23"><path d="M54.72,592.9194 C62.08,643.1194 80.8,720.8894 128,768.6094 C147.08,787.8994 169.409,797.3247 193.859,803.4347" fill="none" id="A9-to-UC_M05" style="stroke:#181818;stroke-width:1.5;"/><polygon fill="#181818" points="199.68,804.8894,191.9183,798.8267,194.8292,803.6772,189.9787,806.5881,199.68,804.8894" style="stroke:#181818;stroke-width:1.5;"/></g><!--link A9 to UC_P01--><g class="link" data-entity-1="ent0002" data-entity-2="ent0013" data-link-type="dependency" data-source-line="348" id="lnk24"><path d="M56.48,592.8494 C67.79,670.3694 93.28,817.9094 128,856.6094 C143.9,874.3394 161.6642,883.4051 183.8142,889.9251" fill="none" id="A9-to-UC_P01" style="stroke:#181818;stroke-width:1.5;"/><polygon fill="#181818" points="189.57,891.6194,182.0658,885.2408,184.7735,890.2075,179.8068,892.9152,189.57,891.6194" style="stroke:#181818;stroke-width:1.5;"/></g><!--link A9 to UC_P04--><g class="link" data-entity-1="ent0002" data-entity-2="ent0014" data-link-type="dependency" data-source-line="349" id="lnk25"><path d="M53.51,592.7294 C61.34,687.3094 83.14,892.8694 128,945.6094 C142.92,963.1494 159.5778,972.1194 181.1278,978.6494" fill="none" id="A9-to-UC_P04" style="stroke:#181818;stroke-width:1.5;"/><polygon fill="#181818" points="186.87,980.3894,179.4167,973.9513,182.0849,978.9394,177.0968,981.6075,186.87,980.3894" style="stroke:#181818;stroke-width:1.5;"/></g><?plantuml-src RLDDZvim5BppAvvofqqs8UfUAY7swv9kj0qtfEgjUH0tnaRFPjEgwd-lORF59BaWXZSpdZSMJZf5a6VG6WPq_X53UWjfsKWjhMCi3KVs87MBZ0sKL66dt8FHxXis14-atiX9WG6dHN70chwxtzwPIJZKjQA0OFVUzIXr3HKg6qxOTBeKXZKnV0c-e_39tWtnIDOqeIXbDiVTNeg39cjXyIc955KEd06MzTv1AViKqkXey85PUbleoOOpGElNZaxHOPQXDTPl2vqrC_WJWNyXWTQFyYnEyrqyNtYFpf7kj-VOqk2HPp_I-U8QFIdqbhYI2WWirHsZ5ZXgackQjTSmLSIaXVHCRPoi_742pQXSdollDaEux2M_yuCEMHhxGTzSXklfDuL-U4opaNLpZRKiz4wslXThb1JIXJasy-MP97i-IQXf5Jhwdo6xe0xkgq8_T-xL_8BFyDEy1f5Nr-X9Ntyf7IXJZzJp6hSlzsCPzEPlQ-nYUz75mFOvxhKWPkIJOXIieh-H_plY-El7JOSecQ1rW3OJPbzlY9O1oYQetpr4uGdRYQVFzWy0?></g></svg>