<?plantuml 1.2026.1?><svg xmlns="http://www.w3.org/2000/svg" xmlns:xlink="http://www.w3.org/1999/xlink" contentStyleType="text/css" data-diagram-type="DESCRIPTION" height="511px" preserveAspectRatio="none" style="width:372px;height:511px;background:#FFFFFF;" version="1.1" viewBox="0 0 372 511" width="372px" zoomAndPan="magnify"><title>UC por ator - A6 Membro COE</title><defs/><g><g class="title" data-source-line="188"><text fill="#000000" font-family="Helvetica" font-size="14" font-weight="bold" lengthAdjust="spacing" textLength="199.9033" x="79.0483" y="24.5332">UC por ator - A6 Membro COE</text></g><!--cluster Casos de uso--><g class="cluster" data-qualified-name="Casos de uso" data-source-line="197" id="ent0003"><rect fill="none" height="460" rx="4" ry="4" style="stroke:#181818;stroke-width:1;" width="230" x="136" y="45.6094"/><text fill="#000000" font-family="Helvetica" font-size="14" font-weight="bold" lengthAdjust="spacing" textLength="91.0273" x="205.4863" y="62.1426">Casos de uso</text></g><!--entity UC_A01--><g class="entity" data-qualified-name="Casos de uso.UC_A01" data-source-line="198" id="ent0004"><ellipse cx="250.7838" cy="108.8552" fill="#F1F1F1" rx="59.7838" ry="27.2458" style="stroke:#181818;stroke-width:0.5;"/><text fill="#000000" font-family="Helvetica" font-size="14" lengthAdjust="spacing" textLength="73.1172" x="214.2252" y="104.4122">UC-AUT-01</text><text fill="#000000" font-family="Helvetica" font-size="14" lengthAdjust="spacing" textLength="82.4824" x="209.5426" y="122.0216">Autenticar-se</text></g><!--entity UC_A05--><g class="entity" data-qualified-name="Casos de uso.UC_A05" data-source-line="199" id="ent0005"><ellipse cx="251.2302" cy="196.7774" fill="#F1F1F1" rx="77.2302" ry="26.168" style="stroke:#181818;stroke-width:0.5;"/><text fill="#000000" font-family="Helvetica" font-size="14" lengthAdjust="spacing" textLength="73.1172" x="214.6716" y="190.7234">UC-AUT-05</text><text fill="#000000" font-family="Helvetica" font-size="14" lengthAdjust="spacing" textLength="112.8408" x="194.8098" y="208.3328">Perfil e seguranca</text></g><!--entity UC_A06--><g class="entity" data-qualified-name="Casos de uso.UC_A06" data-source-line="200" id="ent0006"><ellipse cx="251.1334" cy="283.7693" fill="#F1F1F1" rx="99.1334" ry="25.66" style="stroke:#181818;stroke-width:0.5;"/><text fill="#000000" font-family="Helvetica" font-size="14" lengthAdjust="spacing" textLength="73.1172" x="214.5748" y="276.9213">UC-AUT-06</text><text fill="#000000" font-family="Helvetica" font-size="14" lengthAdjust="spacing" textLength="149.4131" x="176.4268" y="294.5306">Preferencias notificacao</text></g><!--entity UC_E03--><g class="entity" data-qualified-name="Casos de uso.UC_E03" data-source-line="201" id="ent0007"><ellipse cx="251.0806" cy="372.4452" fill="#F1F1F1" rx="54.5806" ry="27.8358" style="stroke:#181818;stroke-width:0.5;"/><text fill="#000000" font-family="Helvetica" font-size="14" lengthAdjust="spacing" textLength="72.3447" x="214.9082" y="368.8494">UC-EST-03</text><text fill="#000000" font-family="Helvetica" font-size="14" lengthAdjust="spacing" textLength="73.1445" x="214.5083" y="386.4588">Painel COE</text></g><!--entity UC_E02--><g class="entity" data-qualified-name="Casos de uso.UC_E02" data-source-line="202" id="ent0008"><ellipse cx="250.9031" cy="462.5881" fill="#F1F1F1" rx="69.4031" ry="26.4787" style="stroke:#181818;stroke-width:0.5;"/><text fill="#000000" font-family="Helvetica" font-size="14" lengthAdjust="spacing" textLength="72.3447" x="214.7307" y="457.0081">UC-EST-02</text><text fill="#000000" font-family="Helvetica" font-size="14" lengthAdjust="spacing" textLength="99.6064" x="201.0999" y="474.6175">Orientar estagio</text></g><!--entity A6--><g class="entity" data-qualified-name="A6" data-source-line="196" id="ent0002"><ellipse cx="48.7861" cy="252.1094" fill="#F1F1F1" rx="16" ry="16" style="stroke:#181818;stroke-width:0.5;"/><path d="M48.7861,272.1094 C52.7861,272.1094 55.7861,272.1094 59.7861,268.1094 C67.7861,268.1094 75.7861,276.1094 75.7861,284.1094 L75.7861,288.1094 C75.7861,292.1094 71.7861,296.1094 67.7861,296.1094 L29.7861,296.1094 C25.7861,296.1094 21.7861,292.1094 21.7861,288.1094 L21.7861,284.1094 C21.7861,276.1094 29.7861,268.1094 37.7861,268.1094 C41.7861,272.1094 44.7861,272.1094 48.7861,272.1094" fill="#F1F1F1" style="stroke:#181818;stroke-width:0.5;"/><text fill="#000000" font-family="Helvetica" font-size="14" lengthAdjust="spacing" textLength="17.124" x="6" y="311.1426">A6</text><text fill="#000000" font-family="Helvetica" font-size="14" lengthAdjust="spacing" textLength="85.5723" x="6" y="328.752">Membro COE</text></g><!--link A6 to UC_A01--><g class="link" data-entity-1="ent0002" data-entity-2="ent0004" data-link-type="dependency" data-source-line="204" id="lnk9"><path d="M68.8,235.5594 C81.76,207.9494 101.46,174.5094 128,152.6094 C147.36,136.6294 167.2404,127.9007 190.0204,121.2507" fill="none" id="A6-to-UC_A01" style="stroke:#181818;stroke-width:1.5;"/><polygon fill="#181818" points="195.78,119.5694,186.0197,118.2517,190.9803,120.9705,188.2615,125.9311,195.78,119.5694" style="stroke:#181818;stroke-width:1.5;"/></g><!--link A6 to UC_A05--><g class="link" data-entity-1="ent0002" data-entity-2="ent0005" data-link-type="dependency" data-source-line="205" id="lnk10"><path d="M92.29,258.7094 C103.7,252.4394 116.17,245.9694 128,240.6094 C149.33,230.9594 167.8044,223.8546 188.9444,216.4846" fill="none" id="A6-to-UC_A05" style="stroke:#181818;stroke-width:1.5;"/><polygon fill="#181818" points="194.61,214.5094,184.7949,213.6951,189.8887,216.1554,187.4284,221.2492,194.61,214.5094" style="stroke:#181818;stroke-width:1.5;"/></g><!--link A6 to UC_A06--><g class="link" data-entity-1="ent0002" data-entity-2="ent0006" data-link-type="dependency" data-source-line="206" id="lnk11"><path d="M92.41,283.6094 C109.84,283.6094 124.81,283.6094 145.68,283.6094" fill="none" id="A6-to-UC_A06" style="stroke:#181818;stroke-width:1.5;"/><polygon fill="#181818" points="151.68,283.6094,142.68,279.6094,146.68,283.6094,142.68,287.6094,151.68,283.6094" style="stroke:#181818;stroke-width:1.5;"/></g><!--link A6 to UC_E03--><g class="link" data-entity-1="ent0002" data-entity-2="ent0007" data-link-type="dependency" data-source-line="207" id="lnk12"><path d="M92.34,308.3894 C103.75,314.6694 116.21,321.1694 128,326.6094 C152.97,338.1294 176.0689,347.0632 199.3889,355.3832" fill="none" id="A6-to-UC_E03" style="stroke:#181818;stroke-width:1.5;"/><polygon fill="#181818" points="205.04,357.3994,197.9075,350.6077,200.3307,355.7192,195.2192,358.1425,205.04,357.3994" style="stroke:#181818;stroke-width:1.5;"/></g><!--link A6 to UC_E02--><g class="link" data-entity-1="ent0002" data-entity-2="ent0008" data-link-type="dependency" data-source-line="208" id="lnk13"><path d="M68.17,331.7094 C81.05,360.1094 100.89,394.8494 128,417.6094 C145.72,432.4894 163.0984,440.8316 184.4184,447.6916" fill="none" id="A6-to-UC_E02" style="stroke:#181818;stroke-width:1.5;"/><polygon fill="#181818" points="190.13,449.5294,182.7878,442.9649,185.3703,447.9979,180.3374,450.5804,190.13,449.5294" style="stroke:#181818;stroke-width:1.5;"/></g><?plantuml-src RLBBQiCm4BpxAnRVNVB0fgU2CIczj0aalXdALbux8l8ghEI6KlhlLTA7rPABq6XdPcT0Ndj3K5Tmj0Bemv51MS0Z3IzYeLgl4dVGV4J10LhgS3J-th9_me7WWSmhUQqmuXnH7R2dhNyBjaBA8_U68eBROsjFcdleqBXu8dRaLbbX4hYDtb65M5-6U29dXrXKYjZJRg_LWSavcD_aYQ7EWxSWkjzxQFKvXRQSN7mWBOk6ftefe0k5a-_Sa5Reh0jLONGsXVS4meKKkZ2ggwoiTzbitd0vUk9pTSaSNJpgwhcSpQ_HyuOt99qsGE2e7mLPuQJ9hsb2nerGHqAiT62ozReBwnJQILdyKwwsGRaCIjHCvhTTuAvcoslSHSDhqQ482f3ps6ixAHR9Hn9-GfRT_NIBKVu75H4wxuhHuXC0?></g></svg>