<?plantuml 1.2026.1?><svg xmlns="http://www.w3.org/2000/svg" xmlns:xlink="http://www.w3.org/1999/xlink" contentStyleType="text/css" data-diagram-type="DESCRIPTION" height="2281px" preserveAspectRatio="none" style="width:350px;height:2281px;background:#FFFFFF;" version="1.1" viewBox="0 0 350 2281" width="350px" zoomAndPan="magnify"><title>UC por ator - A7 Secretaria</title><defs/><g><g class="title" data-source-line="213"><text fill="#000000" font-family="Helvetica" font-size="14" font-weight="bold" lengthAdjust="spacing" textLength="178.9443" x="78.5278" y="24.5332">UC por ator - A7 Secretaria</text></g><!--cluster Casos de uso--><g class="cluster" data-qualified-name="Casos de uso" data-source-line="222" id="ent0003"><rect fill="none" height="2230" rx="4" ry="4" style="stroke:#181818;stroke-width:1;" width="230" x="114" y="45.6094"/><text fill="#000000" font-family="Helvetica" font-size="14" font-weight="bold" lengthAdjust="spacing" textLength="91.0273" x="183.4863" y="62.1426">Casos de uso</text></g><!--entity UC_A01--><g class="entity" data-qualified-name="Casos de uso.UC_A01" data-source-line="223" id="ent0004"><ellipse cx="228.7838" cy="108.8552" fill="#F1F1F1" rx="59.7838" ry="27.2458" style="stroke:#181818;stroke-width:0.5;"/><text fill="#000000" font-family="Helvetica" font-size="14" lengthAdjust="spacing" textLength="73.1172" x="192.2252" y="104.4122">UC-AUT-01</text><text fill="#000000" font-family="Helvetica" font-size="14" lengthAdjust="spacing" textLength="82.4824" x="187.5426" y="122.0216">Autenticar-se</text></g><!--entity UC_A05--><g class="entity" data-qualified-name="Casos de uso.UC_A05" data-source-line="224" id="ent0005"><ellipse cx="229.2302" cy="196.7774" fill="#F1F1F1" rx="77.2302" ry="26.168" style="stroke:#181818;stroke-width:0.5;"/><text fill="#000000" font-family="Helvetica" font-size="14" lengthAdjust="spacing" textLength="73.1172" x="192.6716" y="190.7234">UC-AUT-05</text><text fill="#000000" font-family="Helvetica" font-size="14" lengthAdjust="spacing" textLength="112.8408" x="172.8098" y="208.3328">Perfil e seguranca</text></g><!--entity UC_A06--><g class="entity" data-qualified-name="Casos de uso.UC_A06" data-source-line="225" id="ent0006"><ellipse cx="229.1334" cy="283.7693" fill="#F1F1F1" rx="99.1334" ry="25.66" style="stroke:#181818;stroke-width:0.5;"/><text fill="#000000" font-family="Helvetica" font-size="14" lengthAdjust="spacing" textLength="73.1172" x="192.5748" y="276.9213">UC-AUT-06</text><text fill="#000000" font-family="Helvetica" font-size="14" lengthAdjust="spacing" textLength="149.4131" x="154.4268" y="294.5306">Preferencias notificacao</text></g><!--entity UC_S02--><g class="entity" data-qualified-name="Casos de uso.UC_S02" data-source-line="226" id="ent0007"><ellipse cx="229.1514" cy="370.7453" fill="#F1F1F1" rx="78.1514" ry="26.1359" style="stroke:#181818;stroke-width:0.5;"/><text fill="#000000" font-family="Helvetica" font-size="14" lengthAdjust="spacing" textLength="73.1309" x="192.586" y="364.642">UC-SOL-02</text><text fill="#000000" font-family="Helvetica" font-size="14" lengthAdjust="spacing" textLength="114.3994" x="171.9517" y="382.2514">Solicitacao interna</text></g><!--entity UC_S04--><g class="entity" data-qualified-name="Casos de uso.UC_S04" data-source-line="227" id="ent0008"><ellipse cx="229.2136" cy="458.8099" fill="#F1F1F1" rx="52.2136" ry="26.7005" style="stroke:#181818;stroke-width:0.5;"/><text fill="#000000" font-family="Helvetica" font-size="14" lengthAdjust="spacing" textLength="73.1309" x="192.6482" y="457.0566">UC-SOL-04</text><text fill="#000000" font-family="Helvetica" font-size="14" lengthAdjust="spacing" textLength="56.7998" x="200.8137" y="474.666">Deliberar</text></g><!--entity UC_S03--><g class="entity" data-qualified-name="Casos de uso.UC_S03" data-source-line="228" id="ent0009"><ellipse cx="229.0785" cy="547.5466" fill="#F1F1F1" rx="58.0785" ry="27.4372" style="stroke:#181818;stroke-width:0.5;"/><text fill="#000000" font-family="Helvetica" font-size="14" lengthAdjust="spacing" textLength="73.1309" x="192.5131" y="543.3808">UC-SOL-03</text><text fill="#000000" font-family="Helvetica" font-size="14" lengthAdjust="spacing" textLength="79.3789" x="189.3891" y="560.9902">Acompanhar</text></g><!--entity UC_S06--><g class="entity" data-qualified-name="Casos de uso.UC_S06" data-source-line="229" id="ent0010"><ellipse cx="229.0398" cy="636.6471" fill="#F1F1F1" rx="69.0398" ry="26.5377" style="stroke:#181818;stroke-width:0.5;"/><text fill="#000000" font-family="Helvetica" font-size="14" lengthAdjust="spacing" textLength="73.1309" x="192.4744" y="631.156">UC-SOL-06</text><text fill="#000000" font-family="Helvetica" font-size="14" lengthAdjust="spacing" textLength="98.8135" x="179.6331" y="648.7654">Fila solicitacoes</text></g><!--entity UC_S07--><g class="entity" data-qualified-name="Casos de uso.UC_S07" data-source-line="230" id="ent0011"><ellipse cx="229.0073" cy="724.5178" fill="#F1F1F1" rx="86.0073" ry="25.9084" style="stroke:#181818;stroke-width:0.5;"/><text fill="#000000" font-family="Helvetica" font-size="14" lengthAdjust="spacing" textLength="73.1309" x="192.4419" y="718.0612">UC-SOL-07</text><text fill="#000000" font-family="Helvetica" font-size="14" lengthAdjust="spacing" textLength="127.6133" x="165.2007" y="735.6705">Autorizacao imagem</text></g><!--entity UC_D01--><g class="entity" data-qualified-name="Casos de uso.UC_D01" data-source-line="231" id="ent0012"><ellipse cx="229.2404" cy="812.7812" fill="#F1F1F1" rx="61.7404" ry="27.1718" style="stroke:#181818;stroke-width:0.5;"/><text fill="#000000" font-family="Helvetica" font-size="14" lengthAdjust="spacing" textLength="74.6758" x="191.9025" y="808.2303">UC-CAD-01</text><text fill="#000000" font-family="Helvetica" font-size="14" lengthAdjust="spacing" textLength="85.5859" x="186.4475" y="825.8397">CRUD alunos</text></g><!--entity UC_D02--><g class="entity" data-qualified-name="Casos de uso.UC_D02" data-source-line="232" id="ent0013"><ellipse cx="229.229" cy="901.7823" fill="#F1F1F1" rx="61.729" ry="27.1729" style="stroke:#181818;stroke-width:0.5;"/><text fill="#000000" font-family="Helvetica" font-size="14" lengthAdjust="spacing" textLength="74.6758" x="191.8911" y="897.233">UC-CAD-02</text><text fill="#000000" font-family="Helvetica" font-size="14" lengthAdjust="spacing" textLength="85.5654" x="186.4463" y="914.8424">CRUD cursos</text></g><!--entity UC_D03--><g class="entity" data-qualified-name="Casos de uso.UC_D03" data-source-line="233" id="ent0014"><ellipse cx="229.0951" cy="990.4216" fill="#F1F1F1" rx="75.0951" ry="26.3122" style="stroke:#181818;stroke-width:0.5;"/><text fill="#000000" font-family="Helvetica" font-size="14" lengthAdjust="spacing" textLength="74.6758" x="191.7572" y="984.5887">UC-CAD-03</text><text fill="#000000" font-family="Helvetica" font-size="14" lengthAdjust="spacing" textLength="108.917" x="174.6366" y="1002.1981">CRUD disciplinas</text></g><!--entity UC_D04--><g class="entity" data-qualified-name="Casos de uso.UC_D04" data-source-line="234" id="ent0015"><ellipse cx="229.1431" cy="1079.4654" fill="#F1F1F1" rx="54.6431" ry="27.356" style="stroke:#181818;stroke-width:0.5;"/><text fill="#000000" font-family="Helvetica" font-size="14" lengthAdjust="spacing" textLength="74.6758" x="191.8052" y="1076.7484">UC-CAD-04</text><text fill="#000000" font-family="Helvetica" font-size="14" lengthAdjust="spacing" textLength="67.71" x="195.2882" y="1094.3578">Calendario</text></g><!--entity UC_P01--><g class="entity" data-qualified-name="Casos de uso.UC_P01" data-source-line="235" id="ent0016"><ellipse cx="229.0128" cy="1169.3787" fill="#F1F1F1" rx="66.0128" ry="26.7693" style="stroke:#181818;stroke-width:0.5;"/><text fill="#000000" font-family="Helvetica" font-size="14" lengthAdjust="spacing" textLength="73.9033" x="192.0611" y="1164.2347">UC-PRE-01</text><text fill="#000000" font-family="Helvetica" font-size="14" lengthAdjust="spacing" textLength="93.3652" x="182.3301" y="1181.8441">CRUD eventos</text></g><!--entity UC_P02--><g class="entity" data-qualified-name="Casos de uso.UC_P02" data-source-line="236" id="ent0017"><ellipse cx="229.1614" cy="1258.4518" fill="#F1F1F1" rx="73.6614" ry="26.3424" style="stroke:#181818;stroke-width:0.5;"/><text fill="#000000" font-family="Helvetica" font-size="14" lengthAdjust="spacing" textLength="73.9033" x="192.2098" y="1252.6648">UC-PRE-02</text><text fill="#000000" font-family="Helvetica" font-size="14" lengthAdjust="spacing" textLength="106.6133" x="175.8548" y="1270.2742">Operar validacao</text></g><!--entity UC_P04--><g class="entity" data-qualified-name="Casos de uso.UC_P04" data-source-line="237" id="ent0018"><ellipse cx="229.0926" cy="1346.6551" fill="#F1F1F1" rx="69.5926" ry="26.5458" style="stroke:#181818;stroke-width:0.5;"/><text fill="#000000" font-family="Helvetica" font-size="14" lengthAdjust="spacing" textLength="73.9033" x="192.141" y="1341.1763">UC-PRE-04</text><text fill="#000000" font-family="Helvetica" font-size="14" lengthAdjust="spacing" textLength="99.6064" x="179.2894" y="1358.7856">Encerrar evento</text></g><!--entity UC_R01--><g class="entity" data-qualified-name="Casos de uso.UC_R01" data-source-line="238" id="ent0019"><ellipse cx="229.0815" cy="1434.3871" fill="#F1F1F1" rx="92.0815" ry="25.7777" style="stroke:#181818;stroke-width:0.5;"/><text fill="#000000" font-family="Helvetica" font-size="14" lengthAdjust="spacing" textLength="73.1172" x="192.5229" y="1427.7253">UC-ATD-01</text><text fill="#000000" font-family="Helvetica" font-size="14" lengthAdjust="spacing" textLength="137.7373" x="160.2128" y="1445.3347">Registrar atendimento</text></g><!--entity UC_G02--><g class="entity" data-qualified-name="Casos de uso.UC_G02" data-source-line="239" id="ent0020"><ellipse cx="229.0235" cy="1522.3735" fill="#F1F1F1" rx="77.0235" ry="26.2641" style="stroke:#181818;stroke-width:0.5;"/><text fill="#000000" font-family="Helvetica" font-size="14" lengthAdjust="spacing" textLength="75.4551" x="191.296" y="1516.4671">UC-EGR-02</text><text fill="#000000" font-family="Helvetica" font-size="14" lengthAdjust="spacing" textLength="112.0615" x="172.9928" y="1534.0765">Colacao / diploma</text></g><!--entity UC_G03--><g class="entity" data-qualified-name="Casos de uso.UC_G03" data-source-line="240" id="ent0021"><ellipse cx="228.9305" cy="1610.8383" fill="#F1F1F1" rx="77.9305" ry="26.2289" style="stroke:#181818;stroke-width:0.5;"/><text fill="#000000" font-family="Helvetica" font-size="14" lengthAdjust="spacing" textLength="75.4551" x="191.203" y="1604.878">UC-EGR-03</text><text fill="#000000" font-family="Helvetica" font-size="14" lengthAdjust="spacing" textLength="113.6064" x="172.1273" y="1622.4874">Exportar egressos</text></g><!--entity UC_M06--><g class="entity" data-qualified-name="Casos de uso.UC_M06" data-source-line="241" id="ent0022"><ellipse cx="229.1489" cy="1698.4193" fill="#F1F1F1" rx="76.6489" ry="26.3099" style="stroke:#181818;stroke-width:0.5;"/><text fill="#000000" font-family="Helvetica" font-size="14" lengthAdjust="spacing" textLength="76.2275" x="191.0351" y="1692.5829">UC-ADM-06</text><text fill="#000000" font-family="Helvetica" font-size="14" lengthAdjust="spacing" textLength="111.2754" x="173.5112" y="1710.1922">Importar planilhas</text></g><!--entity UC_M07--><g class="entity" data-qualified-name="Casos de uso.UC_M07" data-source-line="242" id="ent0023"><ellipse cx="228.9681" cy="1786.847" fill="#F1F1F1" rx="78.4681" ry="26.2376" style="stroke:#181818;stroke-width:0.5;"/><text fill="#000000" font-family="Helvetica" font-size="14" lengthAdjust="spacing" textLength="76.2275" x="190.8544" y="1780.9">UC-ADM-07</text><text fill="#000000" font-family="Helvetica" font-size="14" lengthAdjust="spacing" textLength="114.3789" x="171.7787" y="1798.5093">Exportar relatorios</text></g><!--entity UC_M08--><g class="entity" data-qualified-name="Casos de uso.UC_M08" data-source-line="243" id="ent0024"><ellipse cx="228.9838" cy="1875.589" fill="#F1F1F1" rx="55.9838" ry="27.4796" style="stroke:#181818;stroke-width:0.5;"/><text fill="#000000" font-family="Helvetica" font-size="14" lengthAdjust="spacing" textLength="76.2275" x="190.87" y="1872.6936">UC-ADM-08</text><text fill="#000000" font-family="Helvetica" font-size="14" lengthAdjust="spacing" textLength="70.7998" x="193.5839" y="1890.303">Estatisticas</text></g><!--entity UC_DASH--><g class="entity" data-qualified-name="Casos de uso.UC_DASH" data-source-line="244" id="ent0025"><ellipse cx="228.9703" cy="1965.4915" fill="#F1F1F1" rx="59.9703" ry="26.8821" style="stroke:#181818;stroke-width:0.5;"/><text fill="#000000" font-family="Helvetica" font-size="14" lengthAdjust="spacing" textLength="84.0137" x="186.9635" y="1963.4681">UC-DASH-01</text><text fill="#000000" font-family="Helvetica" font-size="14" lengthAdjust="spacing" textLength="68.4893" x="194.7257" y="1981.0775">Dashboard</text></g><!--entity UC_M10--><g class="entity" data-qualified-name="Casos de uso.UC_M10" data-source-line="245" id="ent0026"><ellipse cx="229.0104" cy="2055.7163" fill="#F1F1F1" rx="59.0104" ry="27.6069" style="stroke:#181818;stroke-width:0.5;"/><text fill="#000000" font-family="Helvetica" font-size="14" lengthAdjust="spacing" textLength="76.2275" x="190.8966" y="2051.7945">UC-ADM-10</text><text fill="#000000" font-family="Helvetica" font-size="14" lengthAdjust="spacing" textLength="80.165" x="188.9279" y="2069.4038">Busca global</text></g><!--entity UC_M12--><g class="entity" data-qualified-name="Casos de uso.UC_M12" data-source-line="246" id="ent0027"><ellipse cx="228.7758" cy="2144.7059" fill="#F1F1F1" rx="70.7758" ry="26.5965" style="stroke:#181818;stroke-width:0.5;"/><text fill="#000000" font-family="Helvetica" font-size="14" lengthAdjust="spacing" textLength="76.2275" x="190.662" y="2139.3033">UC-ADM-12</text><text fill="#000000" font-family="Helvetica" font-size="14" lengthAdjust="spacing" textLength="101.1582" x="178.1967" y="2156.9127">Tarefas internas</text></g><!--entity UC_C01--><g class="entity" data-qualified-name="Casos de uso.UC_C01" data-source-line="247" id="ent0028"><ellipse cx="228.7837" cy="2232.4553" fill="#F1F1F1" rx="77.2837" ry="26.3459" style="stroke:#181818;stroke-width:0.5;"/><text fill="#000000" font-family="Helvetica" font-size="14" lengthAdjust="spacing" textLength="77.7793" x="189.8941" y="2226.6738">UC-COM-01</text><text fill="#000000" font-family="Helvetica" font-size="14" lengthAdjust="spacing" textLength="112.0615" x="172.753" y="2244.2831">Hub comunicacao</text></g><!--entity A7--><g class="entity" data-qualified-name="A7" data-source-line="221" id="ent0002"><ellipse cx="37.9033" cy="1138.1094" fill="#F1F1F1" rx="16" ry="16" style="stroke:#181818;stroke-width:0.5;"/><path d="M37.9033,1158.1094 C41.9033,1158.1094 44.9033,1158.1094 48.9033,1154.1094 C56.9033,1154.1094 64.9033,1162.1094 64.9033,1170.1094 L64.9033,1174.1094 C64.9033,1178.1094 60.9033,1182.1094 56.9033,1182.1094 L18.9033,1182.1094 C14.9033,1182.1094 10.9033,1178.1094 10.9033,1174.1094 L10.9033,1170.1094 C10.9033,1162.1094 18.9033,1154.1094 26.9033,1154.1094 C30.9033,1158.1094 33.9033,1158.1094 37.9033,1158.1094" fill="#F1F1F1" style="stroke:#181818;stroke-width:0.5;"/><text fill="#000000" font-family="Helvetica" font-size="14" lengthAdjust="spacing" textLength="17.124" x="6" y="1197.1426">A7</text><text fill="#000000" font-family="Helvetica" font-size="14" lengthAdjust="spacing" textLength="63.8066" x="6" y="1214.752">Secretaria</text></g><!--link A7 to UC_A01--><g class="link" data-entity-1="ent0002" data-entity-2="ent0004" data-link-type="dependency" data-source-line="249" id="lnk29"><path d="M39.12,1121.5094 C40.01,930.3094 47.27,230.6294 106,152.6094 C121.3,132.2794 141.0364,122.7736 164.8264,116.8736" fill="none" id="A7-to-UC_A01" style="stroke:#181818;stroke-width:1.5;"/><polygon fill="#181818" points="170.65,115.4294,160.9518,113.7134,165.797,116.6329,162.8775,121.4782,170.65,115.4294" style="stroke:#181818;stroke-width:1.5;"/></g><!--link A7 to UC_A05--><g class="link" data-entity-1="ent0002" data-entity-2="ent0005" data-link-type="dependency" data-source-line="250" id="lnk30"><path d="M39.44,1121.4194 C41.51,940.8794 52.54,311.1794 106,240.6094 C118.71,223.8294 132.7018,215.2876 152.5918,208.8476" fill="none" id="A7-to-UC_A05" style="stroke:#181818;stroke-width:1.5;"/><polygon fill="#181818" points="158.3,206.9994,148.5055,205.9662,153.5431,208.5396,150.9698,213.5772,158.3,206.9994" style="stroke:#181818;stroke-width:1.5;"/></g><!--link A7 to UC_A06--><g class="link" data-entity-1="ent0002" data-entity-2="ent0006" data-link-type="dependency" data-source-line="251" id="lnk31"><path d="M39.8,1121.5694 C43.05,952.2094 57.41,389.7794 106,326.6094 C116.2,313.3494 125.2448,306.4264 140.8048,300.0764" fill="none" id="A7-to-UC_A06" style="stroke:#181818;stroke-width:1.5;"/><polygon fill="#181818" points="146.36,297.8094,136.5158,297.5065,141.7307,299.6986,139.5386,304.9135,146.36,297.8094" style="stroke:#181818;stroke-width:1.5;"/></g><!--link A7 to UC_S02--><g class="link" data-entity-1="ent0002" data-entity-2="ent0007" data-link-type="dependency" data-source-line="252" id="lnk32"><path d="M40.3,1121.4794 C44.95,963.9394 62.88,470.5694 106,414.6094 C118.71,398.1094 132.469,389.6598 152.129,383.2098" fill="none" id="A7-to-UC_S02" style="stroke:#181818;stroke-width:1.5;"/><polygon fill="#181818" points="157.83,381.3394,148.0315,380.3443,153.0791,382.898,150.5254,387.9456,157.83,381.3394" style="stroke:#181818;stroke-width:1.5;"/></g><!--link A7 to UC_S04--><g class="link" data-entity-1="ent0002" data-entity-2="ent0008" data-link-type="dependency" data-source-line="253" id="lnk33"><path d="M40.9,1121.5794 C47.01,976.7494 68.07,551.2494 106,502.6094 C123.17,480.5894 146.4648,470.8439 171.9748,465.3439" fill="none" id="A7-to-UC_S04" style="stroke:#181818;stroke-width:1.5;"/><polygon fill="#181818" points="177.84,464.0794,168.1991,462.0661,172.9523,465.1332,169.8852,469.8864,177.84,464.0794" style="stroke:#181818;stroke-width:1.5;"/></g><!--link A7 to UC_S03--><g class="link" data-entity-1="ent0002" data-entity-2="ent0009" data-link-type="dependency" data-source-line="254" id="lnk34"><path d="M38.32,1121.5194 C37.53,998.1194 41.78,674.2494 106,592.6094 C122.19,572.0294 142.9396,562.3163 167.1496,556.2563" fill="none" id="A7-to-UC_S03" style="stroke:#181818;stroke-width:1.5;"/><polygon fill="#181818" points="172.97,554.7994,163.2681,553.1045,168.1196,556.0135,165.2106,560.865,172.97,554.7994" style="stroke:#181818;stroke-width:1.5;"/></g><!--link A7 to UC_S06--><g class="link" data-entity-1="ent0002" data-entity-2="ent0010" data-link-type="dependency" data-source-line="255" id="lnk35"><path d="M39.44,1121.2694 C41.39,1011.4794 51.75,747.6294 106,680.6094 C120.38,662.8494 136.7733,653.9408 158.2833,647.6208" fill="none" id="A7-to-UC_S06" style="stroke:#181818;stroke-width:1.5;"/><polygon fill="#181818" points="164.04,645.9294,154.2774,644.6287,159.2428,647.3389,156.5326,652.3043,164.04,645.9294" style="stroke:#181818;stroke-width:1.5;"/></g><!--link A7 to UC_S07--><g class="link" data-entity-1="ent0002" data-entity-2="ent0011" data-link-type="dependency" data-source-line="256" id="lnk36"><path d="M41.02,1121.3794 C45.94,1026.5594 61.58,820.5094 106,767.6094 C118.2,753.0794 129.9876,745.462 147.8776,739.092" fill="none" id="A7-to-UC_S07" style="stroke:#181818;stroke-width:1.5;"/><polygon fill="#181818" points="153.53,737.0794,143.7097,736.33,148.8197,738.7566,146.3932,743.8665,153.53,737.0794" style="stroke:#181818;stroke-width:1.5;"/></g><!--link A7 to UC_D01--><g class="link" data-entity-1="ent0002" data-entity-2="ent0012" data-link-type="dependency" data-source-line="257" id="lnk37"><path d="M43.6,1121.5594 C51.94,1043.9194 71.92,895.6394 106,856.6094 C122.36,837.8694 141.5338,828.66 164.6338,822.48" fill="none" id="A7-to-UC_D01" style="stroke:#181818;stroke-width:1.5;"/><polygon fill="#181818" points="170.43,820.9294,160.702,819.3913,165.5999,822.2216,162.7695,827.1195,170.43,820.9294" style="stroke:#181818;stroke-width:1.5;"/></g><!--link A7 to UC_D02--><g class="link" data-entity-1="ent0002" data-entity-2="ent0013" data-link-type="dependency" data-source-line="258" id="lnk38"><path d="M41.28,1121.2494 C46.13,1071.4194 61,994.4694 106,946.6094 C123.09,928.4394 142.386,919.2008 165.356,912.7108" fill="none" id="A7-to-UC_D02" style="stroke:#181818;stroke-width:1.5;"/><polygon fill="#181818" points="171.13,911.0794,161.3815,909.6772,166.3184,912.4389,163.5567,917.3758,171.13,911.0794" style="stroke:#181818;stroke-width:1.5;"/></g><!--link A7 to UC_D03--><g class="link" data-entity-1="ent0002" data-entity-2="ent0014" data-link-type="dependency" data-source-line="259" id="lnk39"><path d="M52.78,1121.4494 C63.21,1092.7694 80.22,1057.5894 106,1034.6094 C122.22,1020.1494 137.8354,1012.1987 158.1154,1005.5887" fill="none" id="A7-to-UC_D03" style="stroke:#181818;stroke-width:1.5;"/><polygon fill="#181818" points="163.82,1003.7294,154.0235,1002.7153,159.0661,1005.2788,156.5026,1010.3215,163.82,1003.7294" style="stroke:#181818;stroke-width:1.5;"/></g><!--link A7 to UC_D04--><g class="link" data-entity-1="ent0002" data-entity-2="ent0015" data-link-type="dependency" data-source-line="260" id="lnk40"><path d="M70.09,1146.4894 C81.09,1138.9194 93.77,1130.8594 106,1124.6094 C130.22,1112.2294 152.984,1103.455 176.314,1095.595" fill="none" id="A7-to-UC_D04" style="stroke:#181818;stroke-width:1.5;"/><polygon fill="#181818" points="182,1093.6794,172.1939,1092.7622,177.2617,1095.2757,174.7481,1100.3435,182,1093.6794" style="stroke:#181818;stroke-width:1.5;"/></g><!--link A7 to UC_P01--><g class="link" data-entity-1="ent0002" data-entity-2="ent0016" data-link-type="dependency" data-source-line="261" id="lnk41"><path d="M70.21,1169.6094 C95.27,1169.6094 125.31,1169.6094 156.63,1169.6094" fill="none" id="A7-to-UC_P01" style="stroke:#181818;stroke-width:1.5;"/><polygon fill="#181818" points="162.63,1169.6094,153.63,1165.6094,157.63,1169.6094,153.63,1173.6094,162.63,1169.6094" style="stroke:#181818;stroke-width:1.5;"/></g><!--link A7 to UC_P02--><g class="link" data-entity-1="ent0002" data-entity-2="ent0017" data-link-type="dependency" data-source-line="262" id="lnk42"><path d="M70.15,1192.1794 C81.15,1199.5794 93.82,1207.4694 106,1213.6094 C127.26,1224.3394 146.0566,1231.8881 167.4666,1239.3781" fill="none" id="A7-to-UC_P02" style="stroke:#181818;stroke-width:1.5;"/><polygon fill="#181818" points="173.13,1241.3594,165.9557,1234.6118,168.4105,1239.7083,163.314,1242.1631,173.13,1241.3594" style="stroke:#181818;stroke-width:1.5;"/></g><!--link A7 to UC_P04--><g class="link" data-entity-1="ent0002" data-entity-2="ent0018" data-link-type="dependency" data-source-line="263" id="lnk43"><path d="M53.19,1217.7094 C63.7,1245.8494 80.65,1280.1494 106,1302.6094 C123.1,1317.7694 140.0927,1326.031 161.2927,1332.651" fill="none" id="A7-to-UC_P04" style="stroke:#181818;stroke-width:1.5;"/><polygon fill="#181818" points="167.02,1334.4394,159.6214,1327.9386,162.2473,1332.949,157.2368,1335.5749,167.02,1334.4394" style="stroke:#181818;stroke-width:1.5;"/></g><!--link A7 to UC_R01--><g class="link" data-entity-1="ent0002" data-entity-2="ent0019" data-link-type="dependency" data-source-line="264" id="lnk44"><path d="M41.33,1217.6094 C46.23,1267.0494 61.14,1343.3594 106,1390.6094 C118.71,1403.9994 130.1814,1411.2144 147.5314,1417.7144" fill="none" id="A7-to-UC_R01" style="stroke:#181818;stroke-width:1.5;"/><polygon fill="#181818" points="153.15,1419.8194,146.1254,1412.9162,148.4678,1418.0652,143.3187,1420.4077,153.15,1419.8194" style="stroke:#181818;stroke-width:1.5;"/></g><!--link A7 to UC_G02--><g class="link" data-entity-1="ent0002" data-entity-2="ent0020" data-link-type="dependency" data-source-line="265" id="lnk45"><path d="M43.83,1217.7994 C52.42,1294.4094 72.65,1439.2594 106,1477.6094 C119.93,1493.6194 134.3785,1502.0403 154.3085,1508.6903" fill="none" id="A7-to-UC_G02" style="stroke:#181818;stroke-width:1.5;"/><polygon fill="#181818" points="160,1510.5894,152.7288,1503.9464,155.2571,1509.0068,150.1967,1511.5351,160,1510.5894" style="stroke:#181818;stroke-width:1.5;"/></g><!--link A7 to UC_G03--><g class="link" data-entity-1="ent0002" data-entity-2="ent0021" data-link-type="dependency" data-source-line="266" id="lnk46"><path d="M41.18,1217.9394 C46.35,1311.8594 62.36,1514.3694 106,1566.6094 C119.35,1582.5894 133.2824,1590.8886 152.9124,1597.3686" fill="none" id="A7-to-UC_G03" style="stroke:#181818;stroke-width:1.5;"/><polygon fill="#181818" points="158.61,1599.2494,151.3175,1592.6298,153.862,1597.682,148.8097,1600.2265,158.61,1599.2494" style="stroke:#181818;stroke-width:1.5;"/></g><!--link A7 to UC_M06--><g class="link" data-entity-1="ent0002" data-entity-2="ent0022" data-link-type="dependency" data-source-line="267" id="lnk47"><path d="M39.55,1217.8294 C41.73,1326.6994 52.56,1587.1894 106,1653.6094 C119.37,1670.2294 133.8011,1678.8325 153.8711,1685.4425" fill="none" id="A7-to-UC_M06" style="stroke:#181818;stroke-width:1.5;"/><polygon fill="#181818" points="159.57,1687.3194,152.273,1680.7048,154.8209,1685.7553,149.7704,1688.3033,159.57,1687.3194" style="stroke:#181818;stroke-width:1.5;"/></g><!--link A7 to UC_M07--><g class="link" data-entity-1="ent0002" data-entity-2="ent0023" data-link-type="dependency" data-source-line="268" id="lnk48"><path d="M38.33,1217.8394 C37.59,1340.7894 41.97,1661.8794 106,1742.6094 C118.87,1758.8394 132.5541,1767.2034 152.0941,1773.6734" fill="none" id="A7-to-UC_M07" style="stroke:#181818;stroke-width:1.5;"/><polygon fill="#181818" points="157.79,1775.5594,150.5035,1768.9331,153.0434,1773.9877,147.9889,1776.5276,157.79,1775.5594" style="stroke:#181818;stroke-width:1.5;"/></g><!--link A7 to UC_M08--><g class="link" data-entity-1="ent0002" data-entity-2="ent0024" data-link-type="dependency" data-source-line="269" id="lnk49"><path d="M40.98,1217.6194 C47.31,1361.3494 68.83,1781.2794 106,1829.6094 C122.42,1850.9594 144.116,1860.9569 168.866,1867.0869" fill="none" id="A7-to-UC_M08" style="stroke:#181818;stroke-width:1.5;"/><polygon fill="#181818" points="174.69,1868.5294,166.9156,1862.483,169.8366,1867.3273,164.9923,1870.2483,174.69,1868.5294" style="stroke:#181818;stroke-width:1.5;"/></g><!--link A7 to UC_DASH--><g class="link" data-entity-1="ent0002" data-entity-2="ent0025" data-link-type="dependency" data-source-line="270" id="lnk50"><path d="M40.34,1217.7494 C45.11,1374.7194 63.32,1864.8294 106,1920.6094 C121.57,1940.9594 141.508,1950.6192 165.338,1956.7292" fill="none" id="A7-to-UC_DASH" style="stroke:#181818;stroke-width:1.5;"/><polygon fill="#181818" points="171.15,1958.2194,163.4255,1952.1094,166.3067,1956.9775,161.4385,1959.8588,171.15,1958.2194" style="stroke:#181818;stroke-width:1.5;"/></g><!--link A7 to UC_M10--><g class="link" data-entity-1="ent0002" data-entity-2="ent0026" data-link-type="dependency" data-source-line="271" id="lnk51"><path d="M39.87,1217.7394 C43.32,1386.7294 58.29,1946.1794 106,2009.6094 C121.65,2030.4094 142.0512,2040.3066 166.1712,2046.5466" fill="none" id="A7-to-UC_M10" style="stroke:#181818;stroke-width:1.5;"/><polygon fill="#181818" points="171.98,2048.0494,164.2687,2041.9227,167.1394,2046.7971,162.265,2049.6677,171.98,2048.0494" style="stroke:#181818;stroke-width:1.5;"/></g><!--link A7 to UC_M12--><g class="link" data-entity-1="ent0002" data-entity-2="ent0027" data-link-type="dependency" data-source-line="272" id="lnk52"><path d="M39.44,1217.8994 C41.48,1398.8394 52.43,2029.8894 106,2100.6094 C119.53,2118.4694 135.221,2127.3723 156.381,2133.6923" fill="none" id="A7-to-UC_M12" style="stroke:#181818;stroke-width:1.5;"/><polygon fill="#181818" points="162.13,2135.4094,154.6512,2129.001,157.3391,2133.9785,152.3617,2136.6664,162.13,2135.4094" style="stroke:#181818;stroke-width:1.5;"/></g><!--link A7 to UC_C01--><g class="link" data-entity-1="ent0002" data-entity-2="ent0028" data-link-type="dependency" data-source-line="273" id="lnk53"><path d="M39.11,1217.7994 C39.98,1409.3794 47.16,2110.4294 106,2188.6094 C118.52,2205.2494 132.2287,2213.7399 151.8987,2220.1899" fill="none" id="A7-to-UC_C01" style="stroke:#181818;stroke-width:1.5;"/><polygon fill="#181818" points="157.6,2222.0594,150.2944,2215.4542,152.8489,2220.5014,147.8017,2223.056,157.6,2222.0594" style="stroke:#181818;stroke-width:1.5;"/></g><?plantuml-src RLJRZjem47tdAopUQRak-rGfJLYsKkaYBcz8rU0CmLh7ZcndjnVrtpi9BB59NX0JdpDpvipOJZY9R1-pGXi6Zdu6B9gpBNA33eo0ddqLgW03EKln1ALqJrgv7v0ZUqRvXavm7rC0VuKCj-utfJN87QXCeWUmPqZrkr0PEu6q_edHfKgvDWeDU_I-0oTPbuJmZbRdFYaoHh_lpeA_AhIMZJxDUX9FZZdDZCZEZgMYKY6qwjLvM3-Q7rJJNf-1fOPxLzsi7uFLbbfbfTLzzhV7w0zoi7IqZmVHVZSOZWugAXsggdKpi5ZdsCS_e-6e2puxg3MQav0CcSMiDA0uD9nP5-U1E0PFQ51nGKYbdJXHEGwwOJxSCRSltmV3CNMdfU32LM0cb4EZRkMsmt4NQNfG2KfnH0EcWKwxe1Dgdkky07NsiPCkB7Nn92Gm-o58esqedVBdjRVQY3yN-JaD9MyuypjE72NrFEBDFc4WIwLl1PBMD6hm-0hcfR4-UDm5dbp1gR1S558ey1YJBWOv6OD4bT9owGPxR-LwisXqunljKgDbtH9UeqduIr4DYBs15Ac_2kkM-ff1MXQAewaubneDuLvGjBiOkS5CM5SnW3Oy5RbFsxIKBPQRYwLQrlFwJ5OLKkUtXLksfDKKCdRnYvuSLqdB35tTflzbozaeMTNBz2s_KWe9IiXpCurLQvjgpjmhOr1MxvlG7cdUHNeaadNWo0UwSHxwyGwTHDldshG4xFcemQItWTD9H-hHyA2-bfO3owG-Whob7WsxqEJh3kWL8D3r6ZTYHgrzVLdLMfxB8wFxMQhmjOXfTFzwzB8F1by-tYe_cWNHWnTLJuOVJODe4aGXR-v5IL0l2N8cGPOagB0EUEk0jmwGcm2v393BeC8gqBaAT5PJzhHKS_GEQKv-v9SWW_y3?></g></svg>