<?plantuml 1.2026.1?><svg xmlns="http://www.w3.org/2000/svg" xmlns:xlink="http://www.w3.org/1999/xlink" contentStyleType="text/css" data-diagram-type="DESCRIPTION" height="595px" preserveAspectRatio="none" style="width:379px;height:595px;background:#FFFFFF;" version="1.1" viewBox="0 0 379 595" width="379px" zoomAndPan="magnify"><title>UC por ator - A5 Membro CAAF</title><defs/><g><g class="title" data-source-line="161"><text fill="#000000" font-family="Helvetica" font-size="14" font-weight="bold" lengthAdjust="spacing" textLength="208.4482" x="78.2759" y="24.5332">UC por ator - A5 Membro CAAF</text></g><!--cluster Casos de uso--><g class="cluster" data-qualified-name="Casos de uso" data-source-line="170" id="ent0003"><rect fill="none" height="544" rx="4" ry="4" style="stroke:#181818;stroke-width:1;" width="230" x="143" y="45.6094"/><text fill="#000000" font-family="Helvetica" font-size="14" font-weight="bold" lengthAdjust="spacing" textLength="91.0273" x="212.4863" y="62.1426">Casos de uso</text></g><!--entity UC_A01--><g class="entity" data-qualified-name="Casos de uso.UC_A01" data-source-line="171" id="ent0004"><ellipse cx="257.7838" cy="108.8552" fill="#F1F1F1" rx="59.7838" ry="27.2458" style="stroke:#181818;stroke-width:0.5;"/><text fill="#000000" font-family="Helvetica" font-size="14" lengthAdjust="spacing" textLength="73.1172" x="221.2252" y="104.4122">UC-AUT-01</text><text fill="#000000" font-family="Helvetica" font-size="14" lengthAdjust="spacing" textLength="82.4824" x="216.5426" y="122.0216">Autenticar-se</text></g><!--entity UC_A05--><g class="entity" data-qualified-name="Casos de uso.UC_A05" data-source-line="172" id="ent0005"><ellipse cx="258.2302" cy="196.7774" fill="#F1F1F1" rx="77.2302" ry="26.168" style="stroke:#181818;stroke-width:0.5;"/><text fill="#000000" font-family="Helvetica" font-size="14" lengthAdjust="spacing" textLength="73.1172" x="221.6716" y="190.7234">UC-AUT-05</text><text fill="#000000" font-family="Helvetica" font-size="14" lengthAdjust="spacing" textLength="112.8408" x="201.8098" y="208.3328">Perfil e seguranca</text></g><!--entity UC_A06--><g class="entity" data-qualified-name="Casos de uso.UC_A06" data-source-line="173" id="ent0006"><ellipse cx="258.1334" cy="283.7693" fill="#F1F1F1" rx="99.1334" ry="25.66" style="stroke:#181818;stroke-width:0.5;"/><text fill="#000000" font-family="Helvetica" font-size="14" lengthAdjust="spacing" textLength="73.1172" x="221.5748" y="276.9213">UC-AUT-06</text><text fill="#000000" font-family="Helvetica" font-size="14" lengthAdjust="spacing" textLength="149.4131" x="183.4268" y="294.5306">Preferencias notificacao</text></g><!--entity UC_F03--><g class="entity" data-qualified-name="Casos de uso.UC_F03" data-source-line="174" id="ent0007"><ellipse cx="258.0943" cy="370.4214" fill="#F1F1F1" rx="75.0943" ry="26.312" style="stroke:#181818;stroke-width:0.5;"/><text fill="#000000" font-family="Helvetica" font-size="14" lengthAdjust="spacing" textLength="74.6689" x="220.7599" y="364.5881">UC-FOR-03</text><text fill="#000000" font-family="Helvetica" font-size="14" lengthAdjust="spacing" textLength="108.917" x="203.6358" y="382.1975">Revisar formativa</text></g><!--entity UC_F04--><g class="entity" data-qualified-name="Casos de uso.UC_F04" data-source-line="175" id="ent0008"><ellipse cx="258.2437" cy="459.6054" fill="#F1F1F1" rx="58.7437" ry="27.496" style="stroke:#181818;stroke-width:0.5;"/><text fill="#000000" font-family="Helvetica" font-size="14" lengthAdjust="spacing" textLength="74.6689" x="220.9092" y="455.5244">UC-FOR-04</text><text fill="#000000" font-family="Helvetica" font-size="14" lengthAdjust="spacing" textLength="80.1445" x="218.1714" y="473.1338">Painel CAAF</text></g><!--entity UC_S03--><g class="entity" data-qualified-name="Casos de uso.UC_S03" data-source-line="176" id="ent0009"><ellipse cx="258.1625" cy="547.7766" fill="#F1F1F1" rx="98.6625" ry="25.6672" style="stroke:#181818;stroke-width:0.5;"/><text fill="#000000" font-family="Helvetica" font-size="14" lengthAdjust="spacing" textLength="73.1309" x="221.597" y="540.94">UC-SOL-03</text><text fill="#000000" font-family="Helvetica" font-size="14" lengthAdjust="spacing" textLength="148.6338" x="183.8456" y="558.5493">Acompanhar solicitacao</text></g><!--entity A5--><g class="entity" data-qualified-name="A5" data-source-line="169" id="ent0002"><ellipse cx="52.2861" cy="296.1094" fill="#F1F1F1" rx="16" ry="16" style="stroke:#181818;stroke-width:0.5;"/><path d="M52.2861,316.1094 C56.2861,316.1094 59.2861,316.1094 63.2861,312.1094 C71.2861,312.1094 79.2861,320.1094 79.2861,328.1094 L79.2861,332.1094 C79.2861,336.1094 75.2861,340.1094 71.2861,340.1094 L33.2861,340.1094 C29.2861,340.1094 25.2861,336.1094 25.2861,332.1094 L25.2861,328.1094 C25.2861,320.1094 33.2861,312.1094 41.2861,312.1094 C45.2861,316.1094 48.2861,316.1094 52.2861,316.1094" fill="#F1F1F1" style="stroke:#181818;stroke-width:0.5;"/><text fill="#000000" font-family="Helvetica" font-size="14" lengthAdjust="spacing" textLength="17.124" x="6" y="355.1426">A5</text><text fill="#000000" font-family="Helvetica" font-size="14" lengthAdjust="spacing" textLength="92.5723" x="6" y="372.752">Membro CAAF</text></g><!--link A5 to UC_A01--><g class="link" data-entity-1="ent0002" data-entity-2="ent0004" data-link-type="dependency" data-source-line="178" id="lnk10"><path d="M64.88,279.4994 C76.43,240.4194 98.02,186.4194 135,152.6094 C153.53,135.6694 173.287,126.7741 196.207,120.2841" fill="none" id="A5-to-UC_A01" style="stroke:#181818;stroke-width:1.5;"/><polygon fill="#181818" points="201.98,118.6494,192.2307,117.2527,197.1691,120.0116,194.4103,124.9501,201.98,118.6494" style="stroke:#181818;stroke-width:1.5;"/></g><!--link A5 to UC_A05--><g class="link" data-entity-1="ent0002" data-entity-2="ent0005" data-link-type="dependency" data-source-line="179" id="lnk11"><path d="M90.99,279.5794 C103.77,265.5694 118.92,251.1894 135,240.6094 C153.53,228.4194 170.1704,220.9942 190.6304,214.1442" fill="none" id="A5-to-UC_A05" style="stroke:#181818;stroke-width:1.5;"/><polygon fill="#181818" points="196.32,212.2394,186.5157,211.3036,191.5787,213.8268,189.0555,218.8897,196.32,212.2394" style="stroke:#181818;stroke-width:1.5;"/></g><!--link A5 to UC_A06--><g class="link" data-entity-1="ent0002" data-entity-2="ent0006" data-link-type="dependency" data-source-line="180" id="lnk12"><path d="M99.17,317.7394 C123.43,312.4894 148.0055,307.1773 175.6655,301.1973" fill="none" id="A5-to-UC_A06" style="stroke:#181818;stroke-width:1.5;"/><polygon fill="#181818" points="181.53,299.9294,171.888,297.9215,176.6429,300.9859,173.5785,305.7409,181.53,299.9294" style="stroke:#181818;stroke-width:1.5;"/></g><!--link A5 to UC_F03--><g class="link" data-entity-1="ent0002" data-entity-2="ent0007" data-link-type="dependency" data-source-line="181" id="lnk13"><path d="M99.17,337.2594 C126.94,343.1294 156.9496,349.4691 187.4796,355.9191" fill="none" id="A5-to-UC_F03" style="stroke:#181818;stroke-width:1.5;"/><polygon fill="#181818" points="193.35,357.1594,185.3712,351.3854,188.458,356.1259,183.7176,359.2126,193.35,357.1594" style="stroke:#181818;stroke-width:1.5;"/></g><!--link A5 to UC_F04--><g class="link" data-entity-1="ent0002" data-entity-2="ent0008" data-link-type="dependency" data-source-line="182" id="lnk14"><path d="M91.45,376.0194 C104.14,389.8894 119.13,404.0794 135,414.6094 C156.54,428.8994 177.4996,437.5991 200.4096,444.8491" fill="none" id="A5-to-UC_F04" style="stroke:#181818;stroke-width:1.5;"/><polygon fill="#181818" points="206.13,446.6594,198.7562,440.1304,201.363,445.1508,196.3426,447.7576,206.13,446.6594" style="stroke:#181818;stroke-width:1.5;"/></g><!--link A5 to UC_S03--><g class="link" data-entity-1="ent0002" data-entity-2="ent0009" data-link-type="dependency" data-source-line="183" id="lnk15"><path d="M64.56,375.9394 C75.96,415.5294 97.49,470.4294 135,504.6094 C148.11,516.5594 159.1323,523.1219 175.8723,529.4019" fill="none" id="A5-to-UC_S03" style="stroke:#181818;stroke-width:1.5;"/><polygon fill="#181818" points="181.49,531.5094,174.4684,524.603,176.8086,529.7531,171.6585,532.0933,181.49,531.5094" style="stroke:#181818;stroke-width:1.5;"/></g><?plantuml-src RL9BQm8n4BxlhnYyRr7gIa-5i20zjBLelGbb6cVNO7P69bcbbFxtHlimBLv2lkHxJKXqqHCiQzY90iQqb60gUA3kLGLgOwP5s3hUeM87Qsgmzt4g71-n8xWZlwVeB6QS7TejjhI8RybNoKRarbD621jSoy5n2mtwaD-ezBoseamADzavsjJhon0F5AJBHKPL3iyRPxTC8S3egYeyDH6YWBfs4s7jZYsSS77oWO6fLfpDDm0CQUJYkpWCQWmIqgpG1nd0Um5fGnP3kbhMfLa-byFHYaqVYO-pQndevB6iNynmT8cU0fz86-U1853RAxB5iwQwf9aaZL93IcnTOh94rwGuYt9MJluffxDvERnUyPpsBg128zfXTFlViEdm-f9adCBGCVdpYvp8ut_anUp-v6-iT3laJOe8ufrrCU-rI24VHVf5PNdxyoevglwWIOQEzN8qpb1o_GG0?></g></svg>