<?plantuml 1.2026.1?><svg xmlns="http://www.w3.org/2000/svg" xmlns:xlink="http://www.w3.org/1999/xlink" contentStyleType="text/css" data-diagram-type="DESCRIPTION" height="1655px" preserveAspectRatio="none" style="width:340px;height:1655px;background:#FFFFFF;" version="1.1" viewBox="0 0 340 1655" width="340px" zoomAndPan="magnify"><title>UC por ator - A2 Aluno</title><defs/><g><g class="title" data-source-line="42"><text fill="#000000" font-family="Helvetica" font-size="14" font-weight="bold" lengthAdjust="spacing" textLength="150.8828" x="87.8086" y="24.5332">UC por ator - A2 Aluno</text></g><!--cluster Casos de uso--><g class="cluster" data-qualified-name="Casos de uso" data-source-line="51" id="ent0003"><rect fill="none" height="1604" rx="4" ry="4" style="stroke:#181818;stroke-width:1;" width="230" x="104.5" y="45.6094"/><text fill="#000000" font-family="Helvetica" font-size="14" font-weight="bold" lengthAdjust="spacing" textLength="91.0273" x="173.9863" y="62.1426">Casos de uso</text></g><!--entity UC_A01--><g class="entity" data-qualified-name="Casos de uso.UC_A01" data-source-line="52" id="ent0004"><ellipse cx="219.2838" cy="108.8552" fill="#F1F1F1" rx="59.7838" ry="27.2458" style="stroke:#181818;stroke-width:0.5;"/><text fill="#000000" font-family="Helvetica" font-size="14" lengthAdjust="spacing" textLength="73.1172" x="182.7252" y="104.4122">UC-AUT-01</text><text fill="#000000" font-family="Helvetica" font-size="14" lengthAdjust="spacing" textLength="82.4824" x="178.0426" y="122.0216">Autenticar-se</text></g><!--entity UC_A04--><g class="entity" data-qualified-name="Casos de uso.UC_A04" data-source-line="53" id="ent0005"><ellipse cx="219.4356" cy="197.5975" fill="#F1F1F1" rx="69.9356" ry="26.4881" style="stroke:#181818;stroke-width:0.5;"/><text fill="#000000" font-family="Helvetica" font-size="14" lengthAdjust="spacing" textLength="73.1172" x="182.877" y="192.0316">UC-AUT-04</text><text fill="#000000" font-family="Helvetica" font-size="14" lengthAdjust="spacing" textLength="100.3652" x="169.2529" y="209.6409">Primeiro acesso</text></g><!--entity UC_A05--><g class="entity" data-qualified-name="Casos de uso.UC_A05" data-source-line="54" id="ent0006"><ellipse cx="219.7302" cy="285.7774" fill="#F1F1F1" rx="77.2302" ry="26.168" style="stroke:#181818;stroke-width:0.5;"/><text fill="#000000" font-family="Helvetica" font-size="14" lengthAdjust="spacing" textLength="73.1172" x="183.1716" y="279.7234">UC-AUT-05</text><text fill="#000000" font-family="Helvetica" font-size="14" lengthAdjust="spacing" textLength="112.8408" x="163.3098" y="297.3328">Perfil e seguranca</text></g><!--entity UC_A06--><g class="entity" data-qualified-name="Casos de uso.UC_A06" data-source-line="55" id="ent0007"><ellipse cx="219.6334" cy="372.7693" fill="#F1F1F1" rx="99.1334" ry="25.66" style="stroke:#181818;stroke-width:0.5;"/><text fill="#000000" font-family="Helvetica" font-size="14" lengthAdjust="spacing" textLength="73.1172" x="183.0748" y="365.9213">UC-AUT-06</text><text fill="#000000" font-family="Helvetica" font-size="14" lengthAdjust="spacing" textLength="149.4131" x="144.9268" y="383.5306">Preferencias notificacao</text></g><!--entity UC_S01--><g class="entity" data-qualified-name="Casos de uso.UC_S01" data-source-line="56" id="ent0008"><ellipse cx="219.5398" cy="459.6471" fill="#F1F1F1" rx="69.0398" ry="26.5377" style="stroke:#181818;stroke-width:0.5;"/><text fill="#000000" font-family="Helvetica" font-size="14" lengthAdjust="spacing" textLength="73.1309" x="182.9744" y="454.156">UC-SOL-01</text><text fill="#000000" font-family="Helvetica" font-size="14" lengthAdjust="spacing" textLength="98.8135" x="170.1331" y="471.7654">Abrir solicitacao</text></g><!--entity UC_S03--><g class="entity" data-qualified-name="Casos de uso.UC_S03" data-source-line="57" id="ent0009"><ellipse cx="219.6625" cy="546.7766" fill="#F1F1F1" rx="98.6625" ry="25.6672" style="stroke:#181818;stroke-width:0.5;"/><text fill="#000000" font-family="Helvetica" font-size="14" lengthAdjust="spacing" textLength="73.1309" x="183.097" y="539.94">UC-SOL-03</text><text fill="#000000" font-family="Helvetica" font-size="14" lengthAdjust="spacing" textLength="148.6338" x="145.3456" y="557.5493">Acompanhar solicitacao</text></g><!--entity UC_S05--><g class="entity" data-qualified-name="Casos de uso.UC_S05" data-source-line="58" id="ent0010"><ellipse cx="219.5834" cy="634.4344" fill="#F1F1F1" rx="64.5834" ry="26.825" style="stroke:#181818;stroke-width:0.5;"/><text fill="#000000" font-family="Helvetica" font-size="14" lengthAdjust="spacing" textLength="73.1309" x="183.0179" y="629.3731">UC-SOL-05</text><text fill="#000000" font-family="Helvetica" font-size="14" lengthAdjust="spacing" textLength="91.0342" x="174.0663" y="646.9824">Protocolo PDF</text></g><!--entity UC_F01--><g class="entity" data-qualified-name="Casos de uso.UC_F01" data-source-line="59" id="ent0011"><ellipse cx="219.4024" cy="722.6456" fill="#F1F1F1" rx="82.9024" ry="26.0362" style="stroke:#181818;stroke-width:0.5;"/><text fill="#000000" font-family="Helvetica" font-size="14" lengthAdjust="spacing" textLength="74.6689" x="182.068" y="716.3881">UC-FOR-01</text><text fill="#000000" font-family="Helvetica" font-size="14" lengthAdjust="spacing" textLength="122.1582" x="158.3233" y="733.9975">Submeter formativa</text></g><!--entity UC_F02--><g class="entity" data-qualified-name="Casos de uso.UC_F02" data-source-line="60" id="ent0012"><ellipse cx="219.5806" cy="809.3851" fill="#F1F1F1" rx="94.0806" ry="25.7757" style="stroke:#181818;stroke-width:0.5;"/><text fill="#000000" font-family="Helvetica" font-size="14" lengthAdjust="spacing" textLength="74.6689" x="182.2461" y="802.7201">UC-FOR-02</text><text fill="#000000" font-family="Helvetica" font-size="14" lengthAdjust="spacing" textLength="140.8408" x="149.1602" y="820.3295">Acompanhar formativa</text></g><!--entity UC_E01--><g class="entity" data-qualified-name="Casos de uso.UC_E01" data-source-line="61" id="ent0013"><ellipse cx="219.2663" cy="897.7717" fill="#F1F1F1" rx="66.2663" ry="26.6623" style="stroke:#181818;stroke-width:0.5;"/><text fill="#000000" font-family="Helvetica" font-size="14" lengthAdjust="spacing" textLength="72.3447" x="183.094" y="892.4678">UC-EST-01</text><text fill="#000000" font-family="Helvetica" font-size="14" lengthAdjust="spacing" textLength="94.165" x="172.1838" y="910.0772">Estagio (aluno)</text></g><!--entity UC_T01--><g class="entity" data-qualified-name="Casos de uso.UC_T01" data-source-line="62" id="ent0014"><ellipse cx="219.503" cy="986.8244" fill="#F1F1F1" rx="56.503" ry="27.7151" style="stroke:#181818;stroke-width:0.5;"/><text fill="#000000" font-family="Helvetica" font-size="14" lengthAdjust="spacing" textLength="73.8896" x="182.5581" y="983.0571">UC-TCC-01</text><text fill="#000000" font-family="Helvetica" font-size="14" lengthAdjust="spacing" textLength="76.2412" x="181.3823" y="1000.6664">TCC (aluno)</text></g><!--entity UC_P03--><g class="entity" data-qualified-name="Casos de uso.UC_P03" data-source-line="63" id="ent0015"><ellipse cx="219.2909" cy="1075.6109" fill="#F1F1F1" rx="83.2909" ry="26.0015" style="stroke:#181818;stroke-width:0.5;"/><text fill="#000000" font-family="Helvetica" font-size="14" lengthAdjust="spacing" textLength="73.9033" x="182.3393" y="1069.2994">UC-PRE-03</text><text fill="#000000" font-family="Helvetica" font-size="14" lengthAdjust="spacing" textLength="122.9375" x="157.8222" y="1086.9088">Confirmar presenca</text></g><!--entity UC_C01--><g class="entity" data-qualified-name="Casos de uso.UC_C01" data-source-line="64" id="ent0016"><ellipse cx="219.2837" cy="1163.4553" fill="#F1F1F1" rx="77.2837" ry="26.3459" style="stroke:#181818;stroke-width:0.5;"/><text fill="#000000" font-family="Helvetica" font-size="14" lengthAdjust="spacing" textLength="77.7793" x="180.3941" y="1157.6738">UC-COM-01</text><text fill="#000000" font-family="Helvetica" font-size="14" lengthAdjust="spacing" textLength="112.0615" x="163.253" y="1175.2831">Hub comunicacao</text></g><!--entity UC_R02--><g class="entity" data-qualified-name="Casos de uso.UC_R02" data-source-line="65" id="ent0017"><ellipse cx="219.5183" cy="1251.5171" fill="#F1F1F1" rx="86.0183" ry="25.9077" style="stroke:#181818;stroke-width:0.5;"/><text fill="#000000" font-family="Helvetica" font-size="14" lengthAdjust="spacing" textLength="73.1172" x="182.9597" y="1245.0595">UC-ATD-02</text><text fill="#000000" font-family="Helvetica" font-size="14" lengthAdjust="spacing" textLength="127.6338" x="155.7014" y="1262.6689">Ciencia atendimento</text></g><!--entity UC_X01--><g class="entity" data-qualified-name="Casos de uso.UC_X01" data-source-line="66" id="ent0018"><ellipse cx="219.5388" cy="1338.5257" fill="#F1F1F1" rx="86.5388" ry="25.9164" style="stroke:#181818;stroke-width:0.5;"/><text fill="#000000" font-family="Helvetica" font-size="14" lengthAdjust="spacing" textLength="73.8896" x="182.594" y="1332.0816">UC-CRT-01</text><text fill="#000000" font-family="Helvetica" font-size="14" lengthAdjust="spacing" textLength="128.3857" x="155.3459" y="1349.691">Certificados proprios</text></g><!--entity UC_DASH--><g class="entity" data-qualified-name="Casos de uso.UC_DASH" data-source-line="67" id="ent0019"><ellipse cx="219.4703" cy="1426.4915" fill="#F1F1F1" rx="59.9703" ry="26.8821" style="stroke:#181818;stroke-width:0.5;"/><text fill="#000000" font-family="Helvetica" font-size="14" lengthAdjust="spacing" textLength="84.0137" x="177.4635" y="1424.4681">UC-DASH-01</text><text fill="#000000" font-family="Helvetica" font-size="14" lengthAdjust="spacing" textLength="68.4893" x="185.2257" y="1442.0775">Dashboard</text></g><!--entity UC_M10--><g class="entity" data-qualified-name="Casos de uso.UC_M10" data-source-line="68" id="ent0020"><ellipse cx="219.5104" cy="1516.7163" fill="#F1F1F1" rx="59.0104" ry="27.6069" style="stroke:#181818;stroke-width:0.5;"/><text fill="#000000" font-family="Helvetica" font-size="14" lengthAdjust="spacing" textLength="76.2275" x="181.3966" y="1512.7945">UC-ADM-10</text><text fill="#000000" font-family="Helvetica" font-size="14" lengthAdjust="spacing" textLength="80.165" x="179.4279" y="1530.4038">Busca global</text></g><!--entity UC_M11--><g class="entity" data-qualified-name="Casos de uso.UC_M11" data-source-line="69" id="ent0021"><ellipse cx="219.6425" cy="1606.674" fill="#F1F1F1" rx="64.1425" ry="27.0647" style="stroke:#181818;stroke-width:0.5;"/><text fill="#000000" font-family="Helvetica" font-size="14" lengthAdjust="spacing" textLength="76.2275" x="181.5288" y="1601.9664">UC-ADM-11</text><text fill="#000000" font-family="Helvetica" font-size="14" lengthAdjust="spacing" textLength="89.4824" x="174.9013" y="1619.5758">Suporte / FAQ</text></g><!--entity A2--><g class="entity" data-qualified-name="A2" data-source-line="50" id="ent0002"><ellipse cx="33" cy="822.1094" fill="#F1F1F1" rx="16" ry="16" style="stroke:#181818;stroke-width:0.5;"/><path d="M33,842.1094 C37,842.1094 40,842.1094 44,838.1094 C52,838.1094 60,846.1094 60,854.1094 L60,858.1094 C60,862.1094 56,866.1094 52,866.1094 L14,866.1094 C10,866.1094 6,862.1094 6,858.1094 L6,854.1094 C6,846.1094 14,838.1094 22,838.1094 C26,842.1094 29,842.1094 33,842.1094" fill="#F1F1F1" style="stroke:#181818;stroke-width:0.5;"/><text fill="#000000" font-family="Helvetica" font-size="14" lengthAdjust="spacing" textLength="17.124" x="15.0967" y="881.1426">A2</text><text fill="#000000" font-family="Helvetica" font-size="14" lengthAdjust="spacing" textLength="35.8066" x="15.0967" y="898.752">Aluno</text></g><!--link A2 to UC_A01--><g class="link" data-entity-1="ent0002" data-entity-2="ent0004" data-link-type="dependency" data-source-line="71" id="lnk22"><path d="M35.36,805.3594 C39.97,655.5394 57.01,205.1994 96.5,153.6094 C112.07,133.2594 132.008,123.5996 155.838,117.4896" fill="none" id="A2-to-UC_A01" style="stroke:#181818;stroke-width:1.5;"/><polygon fill="#181818" points="161.65,115.9994,151.9385,114.36,156.8067,117.2412,153.9255,122.1093,161.65,115.9994" style="stroke:#181818;stroke-width:1.5;"/></g><!--link A2 to UC_A04--><g class="link" data-entity-1="ent0002" data-entity-2="ent0005" data-link-type="dependency" data-source-line="72" id="lnk23"><path d="M36.01,805.2194 C42.08,668.3994 62.02,285.7394 96.5,241.6094 C110.43,223.7794 126.4772,214.8739 147.8072,208.5539" fill="none" id="A2-to-UC_A04" style="stroke:#181818;stroke-width:1.5;"/><polygon fill="#181818" points="153.56,206.8494,143.7945,205.571,148.766,208.2698,146.0672,213.2414,153.56,206.8494" style="stroke:#181818;stroke-width:1.5;"/></g><!--link A2 to UC_A05--><g class="link" data-entity-1="ent0002" data-entity-2="ent0006" data-link-type="dependency" data-source-line="73" id="lnk24"><path d="M33.49,805.3194 C33.23,689.9494 38.56,402.4894 96.5,329.6094 C109.6,313.1294 123.7034,304.6727 143.5634,298.2227" fill="none" id="A2-to-UC_A05" style="stroke:#181818;stroke-width:1.5;"/><polygon fill="#181818" points="149.27,296.3694,139.4746,295.345,144.5145,297.9138,141.9457,302.9538,149.27,296.3694" style="stroke:#181818;stroke-width:1.5;"/></g><!--link A2 to UC_A06--><g class="link" data-entity-1="ent0002" data-entity-2="ent0007" data-link-type="dependency" data-source-line="74" id="lnk25"><path d="M34.75,805.3994 C37.26,704.2694 48.28,474.4094 96.5,415.6094 C107.18,402.5894 116.5038,395.7393 132.2338,389.4093" fill="none" id="A2-to-UC_A06" style="stroke:#181818;stroke-width:1.5;"/><polygon fill="#181818" points="137.8,387.1694,127.9574,386.8185,133.1615,389.036,130.944,394.2401,137.8,387.1694" style="stroke:#181818;stroke-width:1.5;"/></g><!--link A2 to UC_S01--><g class="link" data-entity-1="ent0002" data-entity-2="ent0008" data-link-type="dependency" data-source-line="75" id="lnk26"><path d="M36.74,805.4194 C42.49,720.4194 58.59,548.5494 96.5,503.6094 C111.23,486.1394 127.7064,477.3111 149.1764,470.9611" fill="none" id="A2-to-UC_S01" style="stroke:#181818;stroke-width:1.5;"/><polygon fill="#181818" points="154.93,469.2594,145.1651,467.9762,150.1353,470.6775,147.434,475.6477,154.93,469.2594" style="stroke:#181818;stroke-width:1.5;"/></g><!--link A2 to UC_S03--><g class="link" data-entity-1="ent0002" data-entity-2="ent0009" data-link-type="dependency" data-source-line="76" id="lnk27"><path d="M39.84,805.3994 C48.88,738.1894 68.24,621.0494 96.5,589.6094 C107.98,576.8294 117.9133,570.0376 134.0233,563.7276" fill="none" id="A2-to-UC_S03" style="stroke:#181818;stroke-width:1.5;"/><polygon fill="#181818" points="139.61,561.5394,129.7711,561.0972,134.9544,563.3629,132.6887,568.5462,139.61,561.5394" style="stroke:#181818;stroke-width:1.5;"/></g><!--link A2 to UC_S05--><g class="link" data-entity-1="ent0002" data-entity-2="ent0010" data-link-type="dependency" data-source-line="77" id="lnk28"><path d="M39.84,805.2894 C46.96,766.3494 62.56,712.6494 96.5,678.6094 C113.43,661.6294 131.6267,652.8279 153.8367,646.3979" fill="none" id="A2-to-UC_S05" style="stroke:#181818;stroke-width:1.5;"/><polygon fill="#181818" points="159.6,644.7294,149.8426,643.39,154.7972,646.1198,152.0674,651.0744,159.6,644.7294" style="stroke:#181818;stroke-width:1.5;"/></g><!--link A2 to UC_F01--><g class="link" data-entity-1="ent0002" data-entity-2="ent0011" data-link-type="dependency" data-source-line="78" id="lnk29"><path d="M60.51,805.2294 C70.27,790.8994 82.44,776.2094 96.5,765.6094 C112.82,753.3094 127.266,746.2407 146.436,739.7607" fill="none" id="A2-to-UC_F01" style="stroke:#181818;stroke-width:1.5;"/><polygon fill="#181818" points="152.12,737.8394,142.313,736.9321,147.3833,739.4405,144.8748,744.5108,152.12,737.8394" style="stroke:#181818;stroke-width:1.5;"/></g><!--link A2 to UC_F02--><g class="link" data-entity-1="ent0002" data-entity-2="ent0012" data-link-type="dependency" data-source-line="79" id="lnk30"><path d="M60.83,847.2094 C83.61,841.7794 111.5337,835.1213 141.9737,827.8613" fill="none" id="A2-to-UC_F02" style="stroke:#181818;stroke-width:1.5;"/><polygon fill="#181818" points="147.81,826.4694,138.1276,824.6665,142.9464,827.6293,139.9835,832.4482,147.81,826.4694" style="stroke:#181818;stroke-width:1.5;"/></g><!--link A2 to UC_E01--><g class="link" data-entity-1="ent0002" data-entity-2="ent0013" data-link-type="dependency" data-source-line="80" id="lnk31"><path d="M60.83,860.0094 C87.21,866.2994 122.4738,874.7071 156.0938,882.7271" fill="none" id="A2-to-UC_E01" style="stroke:#181818;stroke-width:1.5;"/><polygon fill="#181818" points="161.93,884.1194,154.1038,878.1402,157.0665,882.9592,152.2475,885.9219,161.93,884.1194" style="stroke:#181818;stroke-width:1.5;"/></g><!--link A2 to UC_T01--><g class="link" data-entity-1="ent0002" data-entity-2="ent0014" data-link-type="dependency" data-source-line="81" id="lnk32"><path d="M60.6,901.8694 C70.37,916.1894 82.51,930.8994 96.5,941.6094 C117.38,957.5994 138.7807,966.633 162.1607,973.613" fill="none" id="A2-to-UC_T01" style="stroke:#181818;stroke-width:1.5;"/><polygon fill="#181818" points="167.91,975.3294,160.4304,968.9219,163.119,973.899,158.1418,976.5876,167.91,975.3294" style="stroke:#181818;stroke-width:1.5;"/></g><!--link A2 to UC_P03--><g class="link" data-entity-1="ent0002" data-entity-2="ent0015" data-link-type="dependency" data-source-line="82" id="lnk33"><path d="M39.48,901.9494 C46.4,941.6094 61.91,996.7194 96.5,1031.6094 C110.53,1045.7594 123.7751,1053.4024 142.5151,1059.9424" fill="none" id="A2-to-UC_P03" style="stroke:#181818;stroke-width:1.5;"/><polygon fill="#181818" points="148.18,1061.9194,141.0006,1055.1773,143.4592,1060.2719,138.3646,1062.7305,148.18,1061.9194" style="stroke:#181818;stroke-width:1.5;"/></g><!--link A2 to UC_C01--><g class="link" data-entity-1="ent0002" data-entity-2="ent0016" data-link-type="dependency" data-source-line="83" id="lnk34"><path d="M39.84,901.6694 C48.91,969.0094 68.34,1086.7994 96.5,1118.6094 C110.49,1134.4194 124.8425,1142.7682 144.6625,1149.4282" fill="none" id="A2-to-UC_C01" style="stroke:#181818;stroke-width:1.5;"/><polygon fill="#181818" points="150.35,1151.3394,143.0929,1144.681,145.6104,1149.7468,140.5447,1152.2643,150.35,1151.3394" style="stroke:#181818;stroke-width:1.5;"/></g><!--link A2 to UC_R02--><g class="link" data-entity-1="ent0002" data-entity-2="ent0017" data-link-type="dependency" data-source-line="84" id="lnk35"><path d="M36.62,901.6694 C42.22,987.3994 58.12,1162.0094 96.5,1207.6094 C108.9,1222.3394 120.9737,1230.1097 139.0837,1236.6197" fill="none" id="A2-to-UC_R02" style="stroke:#181818;stroke-width:1.5;"/><polygon fill="#181818" points="144.73,1238.6494,137.6137,1231.8407,140.0248,1236.958,134.9075,1239.3691,144.73,1238.6494" style="stroke:#181818;stroke-width:1.5;"/></g><!--link A2 to UC_X01--><g class="link" data-entity-1="ent0002" data-entity-2="ent0018" data-link-type="dependency" data-source-line="85" id="lnk36"><path d="M34.72,901.7294 C37.2,1003.2994 48.14,1235.1394 96.5,1294.6094 C108.57,1309.4594 120.4387,1317.256 138.4387,1323.776" fill="none" id="A2-to-UC_X01" style="stroke:#181818;stroke-width:1.5;"/><polygon fill="#181818" points="144.08,1325.8194,136.9803,1318.9934,139.3789,1324.1165,134.2557,1326.5151,144.08,1325.8194" style="stroke:#181818;stroke-width:1.5;"/></g><!--link A2 to UC_DASH--><g class="link" data-entity-1="ent0002" data-entity-2="ent0019" data-link-type="dependency" data-source-line="86" id="lnk37"><path d="M33.47,901.8094 C33.16,1017.7094 38.35,1307.8494 96.5,1381.6094 C112.36,1401.7294 132.331,1411.3577 156.121,1417.5077" fill="none" id="A2-to-UC_DASH" style="stroke:#181818;stroke-width:1.5;"/><polygon fill="#181818" points="161.93,1419.0094,154.2176,1412.8841,157.0891,1417.758,152.2153,1420.6295,161.93,1419.0094" style="stroke:#181818;stroke-width:1.5;"/></g><!--link A2 to UC_M10--><g class="link" data-entity-1="ent0002" data-entity-2="ent0020" data-link-type="dependency" data-source-line="87" id="lnk38"><path d="M35.99,901.8694 C42.06,1039.3194 62.04,1425.7994 96.5,1470.6094 C112.37,1491.2394 132.7942,1501.1052 156.8742,1507.3852" fill="none" id="A2-to-UC_M10" style="stroke:#181818;stroke-width:1.5;"/><polygon fill="#181818" points="162.68,1508.8994,154.9807,1502.7576,157.8418,1507.6376,152.9619,1510.4987,162.68,1508.8994" style="stroke:#181818;stroke-width:1.5;"/></g><!--link A2 to UC_M11--><g class="link" data-entity-1="ent0002" data-entity-2="ent0021" data-link-type="dependency" data-source-line="88" id="lnk39"><path d="M35.3,901.8694 C39.79,1052.8694 56.54,1509.3494 96.5,1561.6094 C111.38,1581.0694 129.7726,1590.5362 152.6926,1596.8062" fill="none" id="A2-to-UC_M11" style="stroke:#181818;stroke-width:1.5;"/><polygon fill="#181818" points="158.48,1598.3894,150.8544,1592.1564,153.6572,1597.07,148.7435,1599.8728,158.48,1598.3894" style="stroke:#181818;stroke-width:1.5;"/></g><?plantuml-src TPJ1Rjim38RlVWgYf-tWBKwROgS1dfAWXtNDuWJeeS30oBGZr1ODIMun37ltoKhJs75sISBm_qZ-4csdN4Mm5T2m0NJ-8uPq2cdLQexiiz8D6gmXfmBRoYrPknzO4znHzK9EIUnf6fJFM5BcVlkAXgH3NLRK4zWzvlogT0a5LhQVCTpgNBBHPE1Bxt-KVg93GNmbotKVIetXryrUoMTDraBoQHPLL3Xm34QLUmUvwgPGhADG1wxIwPCEpgu0hRSPlOqCLm8jM-yIMkkJVoBmFqYYzQcjYDFj9fuadcqTwSwrYIs56blnAvqab-GtJtfbL4tAiBVX1-GJS7C9c7c0JA4g8B1KjWQrn1CpkyJSTase84DQAg_Kx5JXvvFOwtPxHcOFtmzkTaOPi5mfgLmVoKQE0dBj4SbrWtgF_-6kBt6TCSEE9LSCg_do93_tj7nOXycoTbUJyxjGiAdHgPVtSrYEHWlCT33Q1MfwHYsomuqkhCDICNp0RYq-7e75gCr6Y03uxtFnPYHUhHVXk0JhGlbP33I6BFNkSpKwAl5m7nhSjJlmLbezl4OnthBDF1WNAbo-VtX9vtxXj7k7rYFVOdtmBSWSDYNtQzyORenYUyGUHxtcQNONk3dQ_OxHv4TjbpaVR7uV9vCd_Qsr4g6iU8VLKNwVJ2wfmvtxDv0Z-0pBzET9daH_8_y-YkElnsUj7zqCejaWkkr5sO3hzhGVzRdbGDajpYbQ37ARGRGQr1I3t7fGvN6G2-Tt2hlpwKV9Fm00?></g></svg>