<?plantuml 1.2026.1?><svg xmlns="http://www.w3.org/2000/svg" xmlns:xlink="http://www.w3.org/1999/xlink" contentStyleType="text/css" data-diagram-type="DESCRIPTION" height="1299px" preserveAspectRatio="none" style="width:350px;height:1299px;background:#FFFFFF;" version="1.1" viewBox="0 0 350 1299" width="350px" zoomAndPan="magnify"><title>UC por ator - A4 Professor</title><defs/><g><g class="title" data-source-line="118"><text fill="#000000" font-family="Helvetica" font-size="14" font-weight="bold" lengthAdjust="spacing" textLength="176.5859" x="79.707" y="24.5332">UC por ator - A4 Professor</text></g><!--cluster Casos de uso--><g class="cluster" data-qualified-name="Casos de uso" data-source-line="127" id="ent0003"><rect fill="none" height="1248" rx="4" ry="4" style="stroke:#181818;stroke-width:1;" width="234" x="110" y="45.6094"/><text fill="#000000" font-family="Helvetica" font-size="14" font-weight="bold" lengthAdjust="spacing" textLength="91.0273" x="181.4863" y="62.1426">Casos de uso</text></g><!--entity UC_A01--><g class="entity" data-qualified-name="Casos de uso.UC_A01" data-source-line="128" id="ent0004"><ellipse cx="226.7838" cy="108.8552" fill="#F1F1F1" rx="59.7838" ry="27.2458" style="stroke:#181818;stroke-width:0.5;"/><text fill="#000000" font-family="Helvetica" font-size="14" lengthAdjust="spacing" textLength="73.1172" x="190.2252" y="104.4122">UC-AUT-01</text><text fill="#000000" font-family="Helvetica" font-size="14" lengthAdjust="spacing" textLength="82.4824" x="185.5426" y="122.0216">Autenticar-se</text></g><!--entity UC_A05--><g class="entity" data-qualified-name="Casos de uso.UC_A05" data-source-line="129" id="ent0005"><ellipse cx="227.2302" cy="196.7774" fill="#F1F1F1" rx="77.2302" ry="26.168" style="stroke:#181818;stroke-width:0.5;"/><text fill="#000000" font-family="Helvetica" font-size="14" lengthAdjust="spacing" textLength="73.1172" x="190.6716" y="190.7234">UC-AUT-05</text><text fill="#000000" font-family="Helvetica" font-size="14" lengthAdjust="spacing" textLength="112.8408" x="170.8098" y="208.3328">Perfil e seguranca</text></g><!--entity UC_A06--><g class="entity" data-qualified-name="Casos de uso.UC_A06" data-source-line="130" id="ent0006"><ellipse cx="227.1334" cy="283.7693" fill="#F1F1F1" rx="99.1334" ry="25.66" style="stroke:#181818;stroke-width:0.5;"/><text fill="#000000" font-family="Helvetica" font-size="14" lengthAdjust="spacing" textLength="73.1172" x="190.5748" y="276.9213">UC-AUT-06</text><text fill="#000000" font-family="Helvetica" font-size="14" lengthAdjust="spacing" textLength="149.4131" x="152.4268" y="294.5306">Preferencias notificacao</text></g><!--entity UC_S04--><g class="entity" data-qualified-name="Casos de uso.UC_S04" data-source-line="131" id="ent0007"><ellipse cx="227.0759" cy="370.5408" fill="#F1F1F1" rx="85.0759" ry="25.9314" style="stroke:#181818;stroke-width:0.5;"/><text fill="#000000" font-family="Helvetica" font-size="14" lengthAdjust="spacing" textLength="73.1309" x="190.5105" y="364.1202">UC-SOL-04</text><text fill="#000000" font-family="Helvetica" font-size="14" lengthAdjust="spacing" textLength="126.0547" x="164.0486" y="381.7295">Deliberar solicitacao</text></g><!--entity UC_S03--><g class="entity" data-qualified-name="Casos de uso.UC_S03" data-source-line="132" id="ent0008"><ellipse cx="227.1625" cy="457.7766" fill="#F1F1F1" rx="98.6625" ry="25.6672" style="stroke:#181818;stroke-width:0.5;"/><text fill="#000000" font-family="Helvetica" font-size="14" lengthAdjust="spacing" textLength="73.1309" x="190.597" y="450.94">UC-SOL-03</text><text fill="#000000" font-family="Helvetica" font-size="14" lengthAdjust="spacing" textLength="148.6338" x="152.8456" y="468.5493">Acompanhar solicitacao</text></g><!--entity UC_P01--><g class="entity" data-qualified-name="Casos de uso.UC_P01" data-source-line="133" id="ent0009"><ellipse cx="227.0128" cy="545.3787" fill="#F1F1F1" rx="66.0128" ry="26.7693" style="stroke:#181818;stroke-width:0.5;"/><text fill="#000000" font-family="Helvetica" font-size="14" lengthAdjust="spacing" textLength="73.9033" x="190.0611" y="540.2347">UC-PRE-01</text><text fill="#000000" font-family="Helvetica" font-size="14" lengthAdjust="spacing" textLength="93.3652" x="180.3301" y="557.8441">CRUD eventos</text></g><!--entity UC_P02--><g class="entity" data-qualified-name="Casos de uso.UC_P02" data-source-line="134" id="ent0010"><ellipse cx="227.0865" cy="633.7562" fill="#F1F1F1" rx="101.0865" ry="25.6468" style="stroke:#181818;stroke-width:0.5;"/><text fill="#000000" font-family="Helvetica" font-size="14" lengthAdjust="spacing" textLength="73.9033" x="190.1348" y="626.8873">UC-PRE-02</text><text fill="#000000" font-family="Helvetica" font-size="14" lengthAdjust="spacing" textLength="152.5371" x="150.8179" y="644.4966">Operar validacao evento</text></g><!--entity UC_P04--><g class="entity" data-qualified-name="Casos de uso.UC_P04" data-source-line="135" id="ent0011"><ellipse cx="227.0926" cy="720.6551" fill="#F1F1F1" rx="69.5926" ry="26.5458" style="stroke:#181818;stroke-width:0.5;"/><text fill="#000000" font-family="Helvetica" font-size="14" lengthAdjust="spacing" textLength="73.9033" x="190.141" y="715.1763">UC-PRE-04</text><text fill="#000000" font-family="Helvetica" font-size="14" lengthAdjust="spacing" textLength="99.6064" x="177.2894" y="732.7856">Encerrar evento</text></g><!--entity UC_C02--><g class="entity" data-qualified-name="Casos de uso.UC_C02" data-source-line="136" id="ent0012"><ellipse cx="226.9878" cy="808.491" fill="#F1F1F1" rx="92.4878" ry="25.8816" style="stroke:#181818;stroke-width:0.5;"/><text fill="#000000" font-family="Helvetica" font-size="14" lengthAdjust="spacing" textLength="77.7793" x="188.0981" y="801.9924">UC-COM-02</text><text fill="#000000" font-family="Helvetica" font-size="14" lengthAdjust="spacing" textLength="137.7373" x="158.1191" y="819.6018">Comunicado de turma</text></g><!--entity UC_C01--><g class="entity" data-qualified-name="Casos de uso.UC_C01" data-source-line="137" id="ent0013"><ellipse cx="226.7837" cy="896.4553" fill="#F1F1F1" rx="77.2837" ry="26.3459" style="stroke:#181818;stroke-width:0.5;"/><text fill="#000000" font-family="Helvetica" font-size="14" lengthAdjust="spacing" textLength="77.7793" x="187.8941" y="890.6738">UC-COM-01</text><text fill="#000000" font-family="Helvetica" font-size="14" lengthAdjust="spacing" textLength="112.0615" x="170.753" y="908.2831">Hub comunicacao</text></g><!--entity UC_E02--><g class="entity" data-qualified-name="Casos de uso.UC_E02" data-source-line="138" id="ent0014"><ellipse cx="226.9031" cy="984.5881" fill="#F1F1F1" rx="69.4031" ry="26.4787" style="stroke:#181818;stroke-width:0.5;"/><text fill="#000000" font-family="Helvetica" font-size="14" lengthAdjust="spacing" textLength="72.3447" x="190.7307" y="979.0081">UC-EST-02</text><text fill="#000000" font-family="Helvetica" font-size="14" lengthAdjust="spacing" textLength="99.6064" x="177.0999" y="996.6175">Orientar estagio</text></g><!--entity UC_T02--><g class="entity" data-qualified-name="Casos de uso.UC_T02" data-source-line="139" id="ent0015"><ellipse cx="227.0523" cy="1071.7564" fill="#F1F1F1" rx="101.0523" ry="25.6471" style="stroke:#181818;stroke-width:0.5;"/><text fill="#000000" font-family="Helvetica" font-size="14" lengthAdjust="spacing" textLength="73.8896" x="190.1075" y="1064.8878">UC-TCC-02</text><text fill="#000000" font-family="Helvetica" font-size="14" lengthAdjust="spacing" textLength="152.4824" x="150.8111" y="1082.4972">Orientar / examinar TCC</text></g><!--entity UC_DASH--><g class="entity" data-qualified-name="Casos de uso.UC_DASH" data-source-line="140" id="ent0016"><ellipse cx="226.9703" cy="1159.4915" fill="#F1F1F1" rx="59.9703" ry="26.8821" style="stroke:#181818;stroke-width:0.5;"/><text fill="#000000" font-family="Helvetica" font-size="14" lengthAdjust="spacing" textLength="84.0137" x="184.9635" y="1157.4681">UC-DASH-01</text><text fill="#000000" font-family="Helvetica" font-size="14" lengthAdjust="spacing" textLength="68.4893" x="192.7257" y="1175.0775">Dashboard</text></g><!--entity UC_M10--><g class="entity" data-qualified-name="Casos de uso.UC_M10" data-source-line="141" id="ent0017"><ellipse cx="227.0104" cy="1249.7163" fill="#F1F1F1" rx="59.0104" ry="27.6069" style="stroke:#181818;stroke-width:0.5;"/><text fill="#000000" font-family="Helvetica" font-size="14" lengthAdjust="spacing" textLength="76.2275" x="188.8966" y="1245.7945">UC-ADM-10</text><text fill="#000000" font-family="Helvetica" font-size="14" lengthAdjust="spacing" textLength="80.165" x="186.9279" y="1263.4038">Busca global</text></g><!--entity A4--><g class="entity" data-qualified-name="A4" data-source-line="126" id="ent0002"><ellipse cx="35.9551" cy="646.1094" fill="#F1F1F1" rx="16" ry="16" style="stroke:#181818;stroke-width:0.5;"/><path d="M35.9551,666.1094 C39.9551,666.1094 42.9551,666.1094 46.9551,662.1094 C54.9551,662.1094 62.9551,670.1094 62.9551,678.1094 L62.9551,682.1094 C62.9551,686.1094 58.9551,690.1094 54.9551,690.1094 L16.9551,690.1094 C12.9551,690.1094 8.9551,686.1094 8.9551,682.1094 L8.9551,678.1094 C8.9551,670.1094 16.9551,662.1094 24.9551,662.1094 C28.9551,666.1094 31.9551,666.1094 35.9551,666.1094" fill="#F1F1F1" style="stroke:#181818;stroke-width:0.5;"/><text fill="#000000" font-family="Helvetica" font-size="14" lengthAdjust="spacing" textLength="17.124" x="6" y="705.1426">A4</text><text fill="#000000" font-family="Helvetica" font-size="14" lengthAdjust="spacing" textLength="59.9102" x="6" y="722.752">Professor</text></g><!--link A4 to UC_A01--><g class="link" data-entity-1="ent0002" data-entity-2="ent0004" data-link-type="dependency" data-source-line="143" id="lnk18"><path d="M36.7,629.1894 C36.95,513.5394 43.57,225.3894 102,152.6094 C118.3,132.2994 138.8502,122.7783 163.0902,116.8783" fill="none" id="A4-to-UC_A01" style="stroke:#181818;stroke-width:1.5;"/><polygon fill="#181818" points="168.92,115.4594,159.2293,113.7013,164.0618,116.6418,161.1213,121.4744,168.92,115.4594" style="stroke:#181818;stroke-width:1.5;"/></g><!--link A4 to UC_A05--><g class="link" data-entity-1="ent0002" data-entity-2="ent0005" data-link-type="dependency" data-source-line="144" id="lnk19"><path d="M38.07,629.5094 C41.25,528.5894 53.74,299.2394 102,240.6094 C115.72,223.9394 130.4886,215.3964 150.8786,208.9564" fill="none" id="A4-to-UC_A05" style="stroke:#181818;stroke-width:1.5;"/><polygon fill="#181818" points="156.6,207.1494,146.8132,206.0457,151.8322,208.6553,149.2226,213.6742,156.6,207.1494" style="stroke:#181818;stroke-width:1.5;"/></g><!--link A4 to UC_A06--><g class="link" data-entity-1="ent0002" data-entity-2="ent0006" data-link-type="dependency" data-source-line="145" id="lnk20"><path d="M40.01,629.5594 C46.27,544.3294 63.47,371.4294 102,326.6094 C113.29,313.4794 123.2108,306.5314 139.4508,300.1914" fill="none" id="A4-to-UC_A06" style="stroke:#181818;stroke-width:1.5;"/><polygon fill="#181818" points="145.04,298.0094,135.2016,297.5562,140.3823,299.8277,138.1109,305.0085,145.04,298.0094" style="stroke:#181818;stroke-width:1.5;"/></g><!--link A4 to UC_S04--><g class="link" data-entity-1="ent0002" data-entity-2="ent0007" data-link-type="dependency" data-source-line="146" id="lnk21"><path d="M43.35,629.5694 C53.11,562.6094 73.66,445.8894 102,414.6094 C115.42,399.7994 128.4796,391.9307 147.3296,385.4107" fill="none" id="A4-to-UC_S04" style="stroke:#181818;stroke-width:1.5;"/><polygon fill="#181818" points="153,383.4494,143.1869,382.6111,148.2747,385.0838,145.802,390.1716,153,383.4494" style="stroke:#181818;stroke-width:1.5;"/></g><!--link A4 to UC_S03--><g class="link" data-entity-1="ent0002" data-entity-2="ent0008" data-link-type="dependency" data-source-line="147" id="lnk22"><path d="M43.18,629.3994 C50.67,589.8694 66.96,535.0194 102,500.6094 C114.68,488.1594 125.5326,481.4076 142.2926,475.1176" fill="none" id="A4-to-UC_S03" style="stroke:#181818;stroke-width:1.5;"/><polygon fill="#181818" points="147.91,473.0094,138.0784,472.4267,143.2288,474.7662,140.8893,479.9166,147.91,473.0094" style="stroke:#181818;stroke-width:1.5;"/></g><!--link A4 to UC_P01--><g class="link" data-entity-1="ent0002" data-entity-2="ent0009" data-link-type="dependency" data-source-line="148" id="lnk23"><path d="M65.38,629.4294 C75.49,615.3994 87.92,601.0594 102,590.6094 C121.77,575.9294 141.0733,567.4398 163.4633,560.4398" fill="none" id="A4-to-UC_P01" style="stroke:#181818;stroke-width:1.5;"/><polygon fill="#181818" points="169.19,558.6494,159.4064,557.5172,164.4178,560.1414,161.7936,565.1527,169.19,558.6494" style="stroke:#181818;stroke-width:1.5;"/></g><!--link A4 to UC_P02--><g class="link" data-entity-1="ent0002" data-entity-2="ent0010" data-link-type="dependency" data-source-line="149" id="lnk24"><path d="M66.12,670.8294 C89,665.4994 116.0763,659.2 146.0963,652.21" fill="none" id="A4-to-UC_P02" style="stroke:#181818;stroke-width:1.5;"/><polygon fill="#181818" points="151.94,650.8494,142.2674,648.9946,147.0703,651.9833,144.0816,656.7862,151.94,650.8494" style="stroke:#181818;stroke-width:1.5;"/></g><!--link A4 to UC_P04--><g class="link" data-entity-1="ent0002" data-entity-2="ent0011" data-link-type="dependency" data-source-line="150" id="lnk25"><path d="M66.12,684.2294 C92.83,690.3094 127.3694,698.1686 160.8694,705.7886" fill="none" id="A4-to-UC_P04" style="stroke:#181818;stroke-width:1.5;"/><polygon fill="#181818" points="166.72,707.1194,158.8314,701.2228,161.8445,706.0104,157.057,709.0236,166.72,707.1194" style="stroke:#181818;stroke-width:1.5;"/></g><!--link A4 to UC_C02--><g class="link" data-entity-1="ent0002" data-entity-2="ent0012" data-link-type="dependency" data-source-line="151" id="lnk26"><path d="M65.33,725.8594 C75.45,739.8794 87.88,754.2094 102,764.6094 C118,776.3994 131.777,783.2769 150.487,789.8269" fill="none" id="A4-to-UC_C02" style="stroke:#181818;stroke-width:1.5;"/><polygon fill="#181818" points="156.15,791.8094,148.9772,785.0603,151.4308,790.1573,146.3338,792.611,156.15,791.8094" style="stroke:#181818;stroke-width:1.5;"/></g><!--link A4 to UC_C01--><g class="link" data-entity-1="ent0002" data-entity-2="ent0013" data-link-type="dependency" data-source-line="152" id="lnk27"><path d="M43.68,725.6694 C51.45,764.3994 67.87,817.7894 102,851.6094 C117.46,866.9194 132.8204,875.1947 153.1904,881.8947" fill="none" id="A4-to-UC_C01" style="stroke:#181818;stroke-width:1.5;"/><polygon fill="#181818" points="158.89,883.7694,151.5904,877.1576,154.1403,882.2071,149.0908,884.7571,158.89,883.7694" style="stroke:#181818;stroke-width:1.5;"/></g><!--link A4 to UC_E02--><g class="link" data-entity-1="ent0002" data-entity-2="ent0014" data-link-type="dependency" data-source-line="153" id="lnk28"><path d="M43.35,725.6494 C53.11,792.6094 73.66,909.3294 102,940.6094 C117.64,957.8794 134.7507,966.6869 156.5907,973.0669" fill="none" id="A4-to-UC_E02" style="stroke:#181818;stroke-width:1.5;"/><polygon fill="#181818" points="162.35,974.7494,154.8327,968.3862,157.5506,973.3473,152.5894,976.0653,162.35,974.7494" style="stroke:#181818;stroke-width:1.5;"/></g><!--link A4 to UC_T02--><g class="link" data-entity-1="ent0002" data-entity-2="ent0015" data-link-type="dependency" data-source-line="154" id="lnk29"><path d="M40.01,725.6594 C46.27,810.8894 63.47,983.7894 102,1028.6094 C113.07,1041.4794 122.616,1048.2789 138.506,1054.6089" fill="none" id="A4-to-UC_T02" style="stroke:#181818;stroke-width:1.5;"/><polygon fill="#181818" points="144.08,1056.8294,137.1993,1049.7827,139.435,1054.979,134.2387,1057.2147,144.08,1056.8294" style="stroke:#181818;stroke-width:1.5;"/></g><!--link A4 to UC_DASH--><g class="link" data-entity-1="ent0002" data-entity-2="ent0016" data-link-type="dependency" data-source-line="155" id="lnk30"><path d="M38.1,725.6894 C41.34,826.5494 53.95,1055.8094 102,1114.6094 C118.52,1134.8294 139.1037,1144.4861 163.3037,1150.6161" fill="none" id="A4-to-UC_DASH" style="stroke:#181818;stroke-width:1.5;"/><polygon fill="#181818" points="169.12,1152.0894,161.3777,1146.0019,164.2731,1150.8616,159.4133,1153.757,169.12,1152.0894" style="stroke:#181818;stroke-width:1.5;"/></g><!--link A4 to UC_M10--><g class="link" data-entity-1="ent0002" data-entity-2="ent0017" data-link-type="dependency" data-source-line="156" id="lnk31"><path d="M36.75,725.6394 C37.1,841.1094 43.92,1130.1794 102,1203.6094 C118.52,1224.4994 139.7136,1234.4264 164.3136,1240.6564" fill="none" id="A4-to-UC_M10" style="stroke:#181818;stroke-width:1.5;"/><polygon fill="#181818" points="170.13,1242.1294,162.3874,1236.0423,165.283,1240.9019,160.4234,1243.7974,170.13,1242.1294" style="stroke:#181818;stroke-width:1.5;"/></g><?plantuml-src TPDDZzem48Rl-HKZxcd3yg6UAgM65OUbe2NSa5Q3CmaMZeri1rfL_UzridmuG2-H9pFFpFjE72US95WpE6W3wFmZXdG8IwCBibQRoEw5Eg312d8gi9RkLIlt4ok26SaZES4ng3aWtsD9A_VRTpN47QfIKb1WTvZhar0b52Xjc36wLZdNHf61Ry5xv5xLPqCyaTLL2AN6w5Es4toll5peVnb5aWe7JeCHvSv1BXeLGgkexGEzTBXHLtSzGEljHcVPq6DejVLEeRQw1tyYy0VYQ7rgpU9qdSL9VwFIsf5gd9lOKjjZpJxIfF-iVEJ7aIc4109BPMrGSRmnesVCk9581HbINFXAfPqe_3YE-aQExyZLuYrElBa9IR4bWmQibe8B5sAhPFWC6tXFN5S7LBl_SOCxRla-RNV1tjSJeAFVXxQNwkN3AjhgburQ75fbHvGYR_gVoHluyWpqhgQAasdGU-3U3rlCsqbCLxNoEyjrypbTRQhhrjd3b1RoPcRr5lWP3Dop1p_JLVRfnmWlfv5b7PRYIamVHcICTOclGB-m4ieVVUu2PW_W95tDMd4JjBkjHfDVQflC_VMPpED-ib4_QiiHIgctA2_bytuI_Otypnt7toyNDen6dMWSHCsj2QD142qxNPeF64OXnpevrk6cdLpMYLgRjz3R-0S0?></g></svg>