<?plantuml 1.2026.1?><svg xmlns="http://www.w3.org/2000/svg" xmlns:xlink="http://www.w3.org/1999/xlink" contentStyleType="text/css" data-diagram-type="DESCRIPTION" height="636px" preserveAspectRatio="none" style="width:523px;height:636px;background:#FFFFFF;" version="1.1" viewBox="0 0 523 636" width="523px" zoomAndPan="magnify"><title>UC por ator - A1 Visitante (pre-login)</title><defs/><g><g class="title" data-source-line="12"><text fill="#000000" font-family="Helvetica" font-size="14" font-weight="bold" lengthAdjust="spacing" textLength="242.6758" x="133.4504" y="24.5332">UC por ator - A1 Visitante (pre-login)</text></g><!--cluster Casos de uso--><g class="cluster" data-qualified-name="Casos de uso" data-source-line="21" id="ent0003"><rect fill="none" height="544" rx="4" ry="4" style="stroke:#181818;stroke-width:1;" width="240" x="198.5" y="86.6094"/><text fill="#000000" font-family="Helvetica" font-size="14" font-weight="bold" lengthAdjust="spacing" textLength="91.0273" x="272.9863" y="103.1426">Casos de uso</text></g><!--entity UC_PUB01--><g class="entity" data-qualified-name="Casos de uso.UC_PUB01" data-source-line="22" id="ent0004"><ellipse cx="318.4151" cy="235.7183" fill="#F1F1F1" rx="103.9151" ry="25.6089" style="stroke:#181818;stroke-width:0.5;"/><text fill="#000000" font-family="Helvetica" font-size="14" lengthAdjust="spacing" textLength="73.9033" x="281.4635" y="228.7889">UC-PUB-01</text><text fill="#000000" font-family="Helvetica" font-size="14" lengthAdjust="spacing" textLength="157.1992" x="239.8155" y="246.3983">Pagina institucional / erro</text></g><!--entity UC_A01--><g class="entity" data-qualified-name="Casos de uso.UC_A01" data-source-line="23" id="ent0005"><ellipse cx="318.2838" cy="323.8552" fill="#F1F1F1" rx="59.7838" ry="27.2458" style="stroke:#181818;stroke-width:0.5;"/><text fill="#000000" font-family="Helvetica" font-size="14" lengthAdjust="spacing" textLength="73.1172" x="281.7252" y="319.4122">UC-AUT-01</text><text fill="#000000" font-family="Helvetica" font-size="14" lengthAdjust="spacing" textLength="82.4824" x="277.0426" y="337.0216">Autenticar-se</text></g><!--entity UC_A02--><g class="entity" data-qualified-name="Casos de uso.UC_A02" data-source-line="24" id="ent0006"><ellipse cx="318.5326" cy="412.4026" fill="#F1F1F1" rx="74.0326" ry="26.2932" style="stroke:#181818;stroke-width:0.5;"/><text fill="#000000" font-family="Helvetica" font-size="14" lengthAdjust="spacing" textLength="73.1172" x="281.974" y="406.5407">UC-AUT-02</text><text fill="#000000" font-family="Helvetica" font-size="14" lengthAdjust="spacing" textLength="107.3994" x="264.8329" y="424.1501">Recuperar senha</text></g><!--entity UC_A03--><g class="entity" data-qualified-name="Casos de uso.UC_A03" data-source-line="25" id="ent0007"><ellipse cx="318.6042" cy="500.6711" fill="#F1F1F1" rx="68.6042" ry="26.5617" style="stroke:#181818;stroke-width:0.5;"/><text fill="#000000" font-family="Helvetica" font-size="14" lengthAdjust="spacing" textLength="73.1172" x="282.0456" y="495.2163">UC-AUT-03</text><text fill="#000000" font-family="Helvetica" font-size="14" lengthAdjust="spacing" textLength="98.0615" x="269.5735" y="512.8256">Redefinir senha</text></g><!--entity UC_X02--><g class="entity" data-qualified-name="Casos de uso.UC_X02" data-source-line="26" id="ent0008"><ellipse cx="318.3039" cy="588.8032" fill="#F1F1F1" rx="77.3039" ry="26.1938" style="stroke:#181818;stroke-width:0.5;"/><text fill="#000000" font-family="Helvetica" font-size="14" lengthAdjust="spacing" textLength="73.8896" x="281.3591" y="582.7889">UC-CRT-02</text><text fill="#000000" font-family="Helvetica" font-size="14" lengthAdjust="spacing" textLength="112.8271" x="261.8904" y="600.3983">Verificar protocolo</text></g><!--entity UC_X03--><g class="entity" data-qualified-name="Casos de uso.UC_X03" data-source-line="27" id="ent0009"><ellipse cx="318.4754" cy="148.6787" fill="#F1F1F1" rx="80.9754" ry="26.0693" style="stroke:#181818;stroke-width:0.5;"/><text fill="#000000" font-family="Helvetica" font-size="14" lengthAdjust="spacing" textLength="73.8896" x="281.5306" y="142.4725">UC-CRT-03</text><text fill="#000000" font-family="Helvetica" font-size="14" lengthAdjust="spacing" textLength="119.041" x="258.9549" y="160.0819">Verificar certificado</text></g><!--entity A1--><g class="entity" data-qualified-name="A1" data-source-line="20" id="ent0002"><ellipse cx="33" cy="337.1094" fill="#F1F1F1" rx="16" ry="16" style="stroke:#181818;stroke-width:0.5;"/><path d="M33,357.1094 C37,357.1094 40,357.1094 44,353.1094 C52,353.1094 60,361.1094 60,369.1094 L60,373.1094 C60,377.1094 56,381.1094 52,381.1094 L14,381.1094 C10,381.1094 6,377.1094 6,373.1094 L6,369.1094 C6,361.1094 14,353.1094 22,353.1094 C26,357.1094 29,357.1094 33,357.1094" fill="#F1F1F1" style="stroke:#181818;stroke-width:0.5;"/><text fill="#000000" font-family="Helvetica" font-size="14" lengthAdjust="spacing" textLength="17.124" x="6.1519" y="396.1426">A1</text><text fill="#000000" font-family="Helvetica" font-size="14" lengthAdjust="spacing" textLength="53.6963" x="6.1519" y="413.752">Visitante</text></g><g class="entity" data-qualified-name="GMN16" data-source-line="36" id="ent0017"><path d="M120.5,48.6094 L120.5,66.9609 A4,4 0 0 0 124.5,70.9609 L314.5,70.9609 L318.5,122.3094 L322.5,70.9609 L512.5767,70.9609 A4,4 0 0 0 516.5767,66.9609 L516.5767,54.6094 L506.5767,44.6094 L124.5,44.6094 A4,4 0 0 0 120.5,48.6094" fill="#FEFFDD" style="stroke:#181818;stroke-width:0.5;"/><path d="M506.5767,44.6094 L506.5767,52.6094 A2,2 0 0 0 508.5767,54.6094 L516.5767,54.6094 L506.5767,44.6094" fill="#FEFFDD" style="stroke:#181818;stroke-width:0.5;"/><text fill="#000000" font-family="Helvetica" font-size="13" lengthAdjust="spacing" textLength="375.0767" x="126.5" y="63.1045">Diagrama global: diagrama_casos_de_uso_secretariaonline2_p1</text></g><!--link A1 to UC_PUB01--><g class="link" data-entity-1="ent0002" data-entity-2="ent0004" data-link-type="dependency" data-source-line="29" id="lnk10"><path d="M60.57,331.9694 C76.02,313.2594 97.05,291.7294 120.5,278.6094 C151.13,261.4794 182.0802,252.2613 215.5802,246.0613" fill="none" id="A1-to-UC_PUB01" style="stroke:#181818;stroke-width:1.5;"/><polygon fill="#181818" points="221.48,244.9694,211.9024,242.674,216.5635,245.8793,213.3582,250.5404,221.48,244.9694" style="stroke:#181818;stroke-width:1.5;"/></g><!--link A1 to UC_A01--><g class="link" data-entity-1="ent0002" data-entity-2="ent0005" data-link-type="dependency" data-source-line="30" id="lnk11"><path d="M60.67,364.3794 C106.43,357.1094 194.9142,343.0702 255.6342,333.4302" fill="none" id="A1-to-UC_A01" style="stroke:#181818;stroke-width:1.5;"/><polygon fill="#181818" points="261.56,332.4894,252.0441,329.95,256.6218,333.2734,253.2985,337.8511,261.56,332.4894" style="stroke:#181818;stroke-width:1.5;"/></g><!--link A1 to UC_A02--><g class="link" data-entity-1="ent0002" data-entity-2="ent0006" data-link-type="dependency" data-source-line="31" id="lnk12"><path d="M60.67,372.7494 C103.68,379.4194 183.7109,391.8497 244.3109,401.2497" fill="none" id="A1-to-UC_A02" style="stroke:#181818;stroke-width:1.5;"/><polygon fill="#181818" points="250.24,402.1694,241.9595,396.8371,245.2991,401.403,240.7332,404.7426,250.24,402.1694" style="stroke:#181818;stroke-width:1.5;"/></g><!--link A1 to UC_A03--><g class="link" data-entity-1="ent0002" data-entity-2="ent0007" data-link-type="dependency" data-source-line="32" id="lnk13"><path d="M60.75,404.3894 C76.26,422.6694 97.28,443.7094 120.5,456.6094 C160.64,478.8994 205.3348,489.0801 245.2248,494.5101" fill="none" id="A1-to-UC_A03" style="stroke:#181818;stroke-width:1.5;"/><polygon fill="#181818" points="251.17,495.3194,242.7918,490.142,246.2157,494.645,241.7127,498.0689,251.17,495.3194" style="stroke:#181818;stroke-width:1.5;"/></g><!--link A1 to UC_X02--><g class="link" data-entity-1="ent0002" data-entity-2="ent0008" data-link-type="dependency" data-source-line="33" id="lnk14"><path d="M45.21,416.6994 C57.12,456.9194 79.97,512.7094 120.5,544.6094 C154.51,571.3794 195.5867,581.8966 235.1767,586.2966" fill="none" id="A1-to-UC_X02" style="stroke:#181818;stroke-width:1.5;"/><polygon fill="#181818" points="241.14,586.9594,232.6369,581.9897,236.1706,586.4071,231.7532,589.9408,241.14,586.9594" style="stroke:#181818;stroke-width:1.5;"/></g><!--link A1 to UC_X03--><g class="link" data-entity-1="ent0002" data-entity-2="ent0009" data-link-type="dependency" data-source-line="34" id="lnk15"><path d="M45.21,320.5194 C57.12,280.2994 79.97,224.5094 120.5,192.6094 C153.41,166.7094 192.5635,156.1203 231.3135,151.4303" fill="none" id="A1-to-UC_X03" style="stroke:#181818;stroke-width:1.5;"/><polygon fill="#181818" points="237.27,150.7094,227.8546,147.8198,232.3062,151.3102,228.8158,155.7618,237.27,150.7094" style="stroke:#181818;stroke-width:1.5;"/></g><?plantuml-src RP9DQzn038Rl_XLYJ-d1RRocK7e8k0wbfnBIEEGGCCfOwnrsLZ8pSfTI-jyhUzkiiybb68tqlFeQzHe8cXe6YO1gHmvL0VS-UKLMWeiXKXwaz_mkIplF0qRSGqSR78D-5TRlk2VuHk4dgNUuY1dGxR2d7_hBCaHofjS7MWIaBNPoyDp31aDQUgACt3c9J14-BTxHMOL7GJnGalqIgcAKmztMknrJIb2y_vW5sYYeGFJzLg7pKnLUE9jrO5KLZ_pSwGemMUlPlx9XLMEIP9t2c6G5lpEm2pbCvchg_ARvabyQVuCs6WJFIRsEpjGnm0SWAsPMREhMGY-BCxngxcQy6fLu6bpC4_q7ghV3ruzyIsuSA6A4HBp54x1-2oWdm5RbsRy2oZEWlZrckAVeDrCzC4HHSHAU-tXubMM6oYNaAEfyxHPOcVt9x5Fb-TLf72UxEhFMBwnoOJsyy4swBFP5dqHLzbRQjSVUVW927-G9msVR-F6XTTCksuvQssLh3KHIZ1w5WsTQjqEH4NSmgVq5?></g></svg>